<svg width="270" height="135" viewBox="0 0 270 135" fill="none" xmlns="http://www.w3.org/2000/svg">
<g clip-path="url(#clip0_112_78894)">
<g filter="url(#filter0_dd_112_78894)">
<path d="M99.9 12.5C99.9 5.59644 94.3036 0 87.4 0C80.4965 0 74.9 5.59644 74.9 12.5C74.9 19.4036 80.4965 25 87.4 25C94.3036 25 99.9 19.4036 99.9 12.5Z" fill="#578DFE"/>
</g>
<g filter="url(#filter1_dd_112_78894)">
<path d="M69.9 102.5C69.9 95.5964 64.3036 90 57.4 90C50.4965 90 44.9 95.5964 44.9 102.5C44.9 109.404 50.4965 115 57.4 115C64.3036 115 69.9 109.404 69.9 102.5Z" fill="#AEC7FF"/>
</g>
<g filter="url(#filter2_dd_112_78894)">
<path d="M159.9 42.5C159.9 35.5964 154.304 30 147.4 30C140.496 30 134.9 35.5964 134.9 42.5C134.9 49.4036 140.496 55 147.4 55C154.304 55 159.9 49.4036 159.9 42.5Z" fill="#DED5FF"/>
</g>
<g filter="url(#filter3_dd_112_78894)">
<path d="M129.9 72.5C129.9 65.5964 124.304 60 117.4 60C110.496 60 104.9 65.5964 104.9 72.5C104.9 79.4036 110.496 85 117.4 85C124.304 85 129.9 79.4036 129.9 72.5Z" fill="#578DFE"/>
</g>
<g filter="url(#filter4_dd_112_78894)">
<path d="M99.9 72.5C99.9 65.5964 94.3036 60 87.4 60C80.4965 60 74.9 65.5964 74.9 72.5C74.9 79.4036 80.4965 85 87.4 85C94.3036 85 99.9 79.4036 99.9 72.5Z" fill="#AA9AFF"/>
</g>
<g filter="url(#filter5_dd_112_78894)">
<path d="M69.9 12.5C69.9 5.59644 64.3036 0 57.4 0C50.4965 0 44.9 5.59644 44.9 12.5C44.9 19.4036 50.4965 25 57.4 25C64.3036 25 69.9 19.4036 69.9 12.5Z" fill="#DED5FF"/>
</g>
<g filter="url(#filter6_dd_112_78894)">
<path d="M159.9 12.5C159.9 5.59644 154.304 0 147.4 0C140.496 0 134.9 5.59644 134.9 12.5C134.9 19.4036 140.496 25 147.4 25C154.304 25 159.9 19.4036 159.9 12.5Z" fill="#AEC7FF"/>
</g>
<g filter="url(#filter7_dd_112_78894)">
<path d="M99.9 102.5C99.9 95.5964 94.3036 90 87.4 90C80.4965 90 74.9 95.5964 74.9 102.5C74.9 109.404 80.4965 115 87.4 115C94.3036 115 99.9 109.404 99.9 102.5Z" fill="#DED5FF"/>
</g>
<g filter="url(#filter8_dd_112_78894)">
<path d="M162.2 113.2C159.6 113.2 157.1 112.2 155.1 110.3L127.9 83.1C124 79.2 124 72.9 127.9 69L155.1 41.8C159 37.9 165.3 37.9 169.2 41.8C173.1 45.7 173.1 52 169.2 55.9L150.5 74.6C149.7 75.4 149.7 76.6 150.5 77.4L169 95.9C172.7 99.6 173.2 105.7 169.7 109.7C166.2 113.7 164.9 113.2 162.1 113.2H162.2Z" fill="#AA9AFF"/>
</g>
<g filter="url(#filter9_dd_112_78894)">
<path d="M232.8 113.2C230 113.2 227.2 112 225.2 109.7C221.7 105.7 222.2 99.6 225.9 95.9L244.4 77.4C245.2 76.6 245.2 75.4 244.4 74.6L225.7 55.9C221.8 52 221.8 45.7 225.7 41.8C229.6 37.9 235.9 37.9 239.8 41.8L267 69C270.9 72.9 270.9 79.2 267 83.1L239.8 110.3C237.8 112.3 235.3 113.2 232.7 113.2H232.8Z" fill="#AA9AFF"/>
</g>
<g filter="url(#filter10_dd_112_78894)">
<path d="M181.6 134.3C180.6 134.3 179.5 134.1 178.5 133.8C173.3 132.1 170.4 126.4 172.1 121.2L204 24.7003C205.7 19.5003 211.4 16.6003 216.6 18.3003C221.8 20.0003 224.7 25.7003 223 30.9003L191.1 127.4C189.7 131.6 185.8 134.3 181.6 134.3Z" fill="#DED5FF"/>
</g>
<g filter="url(#filter11_dd_112_78894)">
<path d="M45.2 104.9C43 104.9 40.8 104.2 39 102.9L4.60003 78.8001C-0.299969 75.4001 -1.49997 68.6001 1.90003 63.7001C5.30003 58.8001 12.1 57.6001 17 61.0001L40.9 77.7001C41.8 78.3001 43.1 78.1001 43.7 77.2001L87.7 14.5001C91.1 9.60006 97.9 8.40006 102.8 11.8001C107.7 15.2001 108.9 22.0001 105.5 26.9001L54.1 100.3C52.5 102.7 49.9 104.3 47.1 104.7C46.5 104.8 45.8 104.9 45.2 104.9Z" fill="#8CC63F"/>
</g>
<g filter="url(#filter12_dd_112_78894)">
<path d="M69.9 42.5C69.9 35.5964 64.3036 30 57.4 30C50.4965 30 44.9 35.5964 44.9 42.5C44.9 49.4036 50.4965 55 57.4 55C64.3036 55 69.9 49.4036 69.9 42.5Z" fill="#AA9AFF"/>
</g>
<g filter="url(#filter13_dd_112_78894)">
<path d="M129.9 42.5C129.9 35.5964 124.304 30 117.4 30C110.496 30 104.9 35.5964 104.9 42.5C104.9 49.4036 110.496 55 117.4 55C124.304 55 129.9 49.4036 129.9 42.5Z" fill="#AEC7FF"/>
</g>
<g filter="url(#filter14_dd_112_78894)">
<path d="M159.9 102.5C159.9 95.5964 154.304 90 147.4 90C140.496 90 134.9 95.5964 134.9 102.5C134.9 109.404 140.496 115 147.4 115C154.304 115 159.9 109.404 159.9 102.5Z" fill="#578DFE"/>
</g>
</g>
<defs>
<filter id="filter0_dd_112_78894" x="70.9" y="-3" width="33" height="33" filterUnits="userSpaceOnUse" color-interpolation-filters="sRGB">
<feFlood flood-opacity="0" result="BackgroundImageFix"/>
<feColorMatrix in="SourceAlpha" type="matrix" values="0 0 0 0 0 0 0 0 0 0 0 0 0 0 0 0 0 0 127 0" result="hardAlpha"/>
<feOffset dy="1"/>
<feGaussianBlur stdDeviation="2"/>
<feComposite in2="hardAlpha" operator="out"/>
<feColorMatrix type="matrix" values="0 0 0 0 0.0470588 0 0 0 0 0.0470588 0 0 0 0 0.0509804 0 0 0 0.05 0"/>
<feBlend mode="normal" in2="BackgroundImageFix" result="effect1_dropShadow_112_78894"/>
<feColorMatrix in="SourceAlpha" type="matrix" values="0 0 0 0 0 0 0 0 0 0 0 0 0 0 0 0 0 0 127 0" result="hardAlpha"/>
<feOffset dy="1"/>
<feGaussianBlur stdDeviation="2"/>
<feComposite in2="hardAlpha" operator="out"/>
<feColorMatrix type="matrix" values="0 0 0 0 0.0470588 0 0 0 0 0.0470588 0 0 0 0 0.0509804 0 0 0 0.1 0"/>
<feBlend mode="normal" in2="effect1_dropShadow_112_78894" result="effect2_dropShadow_112_78894"/>
<feBlend mode="normal" in="SourceGraphic" in2="effect2_dropShadow_112_78894" result="shape"/>
</filter>
<filter id="filter1_dd_112_78894" x="40.9" y="87" width="33" height="33" filterUnits="userSpaceOnUse" color-interpolation-filters="sRGB">
<feFlood flood-opacity="0" result="BackgroundImageFix"/>
<feColorMatrix in="SourceAlpha" type="matrix" values="0 0 0 0 0 0 0 0 0 0 0 0 0 0 0 0 0 0 127 0" result="hardAlpha"/>
<feOffset dy="1"/>
<feGaussianBlur stdDeviation="2"/>
<feComposite in2="hardAlpha" operator="out"/>
<feColorMatrix type="matrix" values="0 0 0 0 0.0470588 0 0 0 0 0.0470588 0 0 0 0 0.0509804 0 0 0 0.05 0"/>
<feBlend mode="normal" in2="BackgroundImageFix" result="effect1_dropShadow_112_78894"/>
<feColorMatrix in="SourceAlpha" type="matrix" values="0 0 0 0 0 0 0 0 0 0 0 0 0 0 0 0 0 0 127 0" result="hardAlpha"/>
<feOffset dy="1"/>
<feGaussianBlur stdDeviation="2"/>
<feComposite in2="hardAlpha" operator="out"/>
<feColorMatrix type="matrix" values="0 0 0 0 0.0470588 0 0 0 0 0.0470588 0 0 0 0 0.0509804 0 0 0 0.1 0"/>
<feBlend mode="normal" in2="effect1_dropShadow_112_78894" result="effect2_dropShadow_112_78894"/>
<feBlend mode="normal" in="SourceGraphic" in2="effect2_dropShadow_112_78894" result="shape"/>
</filter>
<filter id="filter2_dd_112_78894" x="130.9" y="27" width="33" height="33" filterUnits="userSpaceOnUse" color-interpolation-filters="sRGB">
<feFlood flood-opacity="0" result="BackgroundImageFix"/>
<feColorMatrix in="SourceAlpha" type="matrix" values="0 0 0 0 0 0 0 0 0 0 0 0 0 0 0 0 0 0 127 0" result="hardAlpha"/>
<feOffset dy="1"/>
<feGaussianBlur stdDeviation="2"/>
<feComposite in2="hardAlpha" operator="out"/>
<feColorMatrix type="matrix" values="0 0 0 0 0.0470588 0 0 0 0 0.0470588 0 0 0 0 0.0509804 0 0 0 0.05 0"/>
<feBlend mode="normal" in2="BackgroundImageFix" result="effect1_dropShadow_112_78894"/>
<feColorMatrix in="SourceAlpha" type="matrix" values="0 0 0 0 0 0 0 0 0 0 0 0 0 0 0 0 0 0 127 0" result="hardAlpha"/>
<feOffset dy="1"/>
<feGaussianBlur stdDeviation="2"/>
<feComposite in2="hardAlpha" operator="out"/>
<feColorMatrix type="matrix" values="0 0 0 0 0.0470588 0 0 0 0 0.0470588 0 0 0 0 0.0509804 0 0 0 0.1 0"/>
<feBlend mode="normal" in2="effect1_dropShadow_112_78894" result="effect2_dropShadow_112_78894"/>
<feBlend mode="normal" in="SourceGraphic" in2="effect2_dropShadow_112_78894" result="shape"/>
</filter>
<filter id="filter3_dd_112_78894" x="100.9" y="57" width="33" height="33" filterUnits="userSpaceOnUse" color-interpolation-filters="sRGB">
<feFlood flood-opacity="0" result="BackgroundImageFix"/>
<feColorMatrix in="SourceAlpha" type="matrix" values="0 0 0 0 0 0 0 0 0 0 0 0 0 0 0 0 0 0 127 0" result="hardAlpha"/>
<feOffset dy="1"/>
<feGaussianBlur stdDeviation="2"/>
<feComposite in2="hardAlpha" operator="out"/>
<feColorMatrix type="matrix" values="0 0 0 0 0.0470588 0 0 0 0 0.0470588 0 0 0 0 0.0509804 0 0 0 0.05 0"/>
<feBlend mode="normal" in2="BackgroundImageFix" result="effect1_dropShadow_112_78894"/>
<feColorMatrix in="SourceAlpha" type="matrix" values="0 0 0 0 0 0 0 0 0 0 0 0 0 0 0 0 0 0 127 0" result="hardAlpha"/>
<feOffset dy="1"/>
<feGaussianBlur stdDeviation="2"/>
<feComposite in2="hardAlpha" operator="out"/>
<feColorMatrix type="matrix" values="0 0 0 0 0.0470588 0 0 0 0 0.0470588 0 0 0 0 0.0509804 0 0 0 0.1 0"/>
<feBlend mode="normal" in2="effect1_dropShadow_112_78894" result="effect2_dropShadow_112_78894"/>
<feBlend mode="normal" in="SourceGraphic" in2="effect2_dropShadow_112_78894" result="shape"/>
</filter>
<filter id="filter4_dd_112_78894" x="70.9" y="57" width="33" height="33" filterUnits="userSpaceOnUse" color-interpolation-filters="sRGB">
<feFlood flood-opacity="0" result="BackgroundImageFix"/>
<feColorMatrix in="SourceAlpha" type="matrix" values="0 0 0 0 0 0 0 0 0 0 0 0 0 0 0 0 0 0 127 0" result="hardAlpha"/>
<feOffset dy="1"/>
<feGaussianBlur stdDeviation="2"/>
<feComposite in2="hardAlpha" operator="out"/>
<feColorMatrix type="matrix" values="0 0 0 0 0.0470588 0 0 0 0 0.0470588 0 0 0 0 0.0509804 0 0 0 0.05 0"/>
<feBlend mode="normal" in2="BackgroundImageFix" result="effect1_dropShadow_112_78894"/>
<feColorMatrix in="SourceAlpha" type="matrix" values="0 0 0 0 0 0 0 0 0 0 0 0 0 0 0 0 0 0 127 0" result="hardAlpha"/>
<feOffset dy="1"/>
<feGaussianBlur stdDeviation="2"/>
<feComposite in2="hardAlpha" operator="out"/>
<feColorMatrix type="matrix" values="0 0 0 0 0.0470588 0 0 0 0 0.0470588 0 0 0 0 0.0509804 0 0 0 0.1 0"/>
<feBlend mode="normal" in2="effect1_dropShadow_112_78894" result="effect2_dropShadow_112_78894"/>
<feBlend mode="normal" in="SourceGraphic" in2="effect2_dropShadow_112_78894" result="shape"/>
</filter>
<filter id="filter5_dd_112_78894" x="40.9" y="-3" width="33" height="33" filterUnits="userSpaceOnUse" color-interpolation-filters="sRGB">
<feFlood flood-opacity="0" result="BackgroundImageFix"/>
<feColorMatrix in="SourceAlpha" type="matrix" values="0 0 0 0 0 0 0 0 0 0 0 0 0 0 0 0 0 0 127 0" result="hardAlpha"/>
<feOffset dy="1"/>
<feGaussianBlur stdDeviation="2"/>
<feComposite in2="hardAlpha" operator="out"/>
<feColorMatrix type="matrix" values="0 0 0 0 0.0470588 0 0 0 0 0.0470588 0 0 0 0 0.0509804 0 0 0 0.05 0"/>
<feBlend mode="normal" in2="BackgroundImageFix" result="effect1_dropShadow_112_78894"/>
<feColorMatrix in="SourceAlpha" type="matrix" values="0 0 0 0 0 0 0 0 0 0 0 0 0 0 0 0 0 0 127 0" result="hardAlpha"/>
<feOffset dy="1"/>
<feGaussianBlur stdDeviation="2"/>
<feComposite in2="hardAlpha" operator="out"/>
<feColorMatrix type="matrix" values="0 0 0 0 0.0470588 0 0 0 0 0.0470588 0 0 0 0 0.0509804 0 0 0 0.1 0"/>
<feBlend mode="normal" in2="effect1_dropShadow_112_78894" result="effect2_dropShadow_112_78894"/>
<feBlend mode="normal" in="SourceGraphic" in2="effect2_dropShadow_112_78894" result="shape"/>
</filter>
<filter id="filter6_dd_112_78894" x="130.9" y="-3" width="33" height="33" filterUnits="userSpaceOnUse" color-interpolation-filters="sRGB">
<feFlood flood-opacity="0" result="BackgroundImageFix"/>
<feColorMatrix in="SourceAlpha" type="matrix" values="0 0 0 0 0 0 0 0 0 0 0 0 0 0 0 0 0 0 127 0" result="hardAlpha"/>
<feOffset dy="1"/>
<feGaussianBlur stdDeviation="2"/>
<feComposite in2="hardAlpha" operator="out"/>
<feColorMatrix type="matrix" values="0 0 0 0 0.0470588 0 0 0 0 0.0470588 0 0 0 0 0.0509804 0 0 0 0.05 0"/>
<feBlend mode="normal" in2="BackgroundImageFix" result="effect1_dropShadow_112_78894"/>
<feColorMatrix in="SourceAlpha" type="matrix" values="0 0 0 0 0 0 0 0 0 0 0 0 0 0 0 0 0 0 127 0" result="hardAlpha"/>
<feOffset dy="1"/>
<feGaussianBlur stdDeviation="2"/>
<feComposite in2="hardAlpha" operator="out"/>
<feColorMatrix type="matrix" values="0 0 0 0 0.0470588 0 0 0 0 0.0470588 0 0 0 0 0.0509804 0 0 0 0.1 0"/>
<feBlend mode="normal" in2="effect1_dropShadow_112_78894" result="effect2_dropShadow_112_78894"/>
<feBlend mode="normal" in="SourceGraphic" in2="effect2_dropShadow_112_78894" result="shape"/>
</filter>
<filter id="filter7_dd_112_78894" x="70.9" y="87" width="33" height="33" filterUnits="userSpaceOnUse" color-interpolation-filters="sRGB">
<feFlood flood-opacity="0" result="BackgroundImageFix"/>
<feColorMatrix in="SourceAlpha" type="matrix" values="0 0 0 0 0 0 0 0 0 0 0 0 0 0 0 0 0 0 127 0" result="hardAlpha"/>
<feOffset dy="1"/>
<feGaussianBlur stdDeviation="2"/>
<feComposite in2="hardAlpha" operator="out"/>
<feColorMatrix type="matrix" values="0 0 0 0 0.0470588 0 0 0 0 0.0470588 0 0 0 0 0.0509804 0 0 0 0.05 0"/>
<feBlend mode="normal" in2="BackgroundImageFix" result="effect1_dropShadow_112_78894"/>
<feColorMatrix in="SourceAlpha" type="matrix" values="0 0 0 0 0 0 0 0 0 0 0 0 0 0 0 0 0 0 127 0" result="hardAlpha"/>
<feOffset dy="1"/>
<feGaussianBlur stdDeviation="2"/>
<feComposite in2="hardAlpha" operator="out"/>
<feColorMatrix type="matrix" values="0 0 0 0 0.0470588 0 0 0 0 0.0470588 0 0 0 0 0.0509804 0 0 0 0.1 0"/>
<feBlend mode="normal" in2="effect1_dropShadow_112_78894" result="effect2_dropShadow_112_78894"/>
<feBlend mode="normal" in="SourceGraphic" in2="effect2_dropShadow_112_78894" result="shape"/>
</filter>
<filter id="filter8_dd_112_78894" x="120.975" y="35.875" width="55.15" height="82.3447" filterUnits="userSpaceOnUse" color-interpolation-filters="sRGB">
<feFlood flood-opacity="0" result="BackgroundImageFix"/>
<feColorMatrix in="SourceAlpha" type="matrix" values="0 0 0 0 0 0 0 0 0 0 0 0 0 0 0 0 0 0 127 0" result="hardAlpha"/>
<feOffset dy="1"/>
<feGaussianBlur stdDeviation="2"/>
<feComposite in2="hardAlpha" operator="out"/>
<feColorMatrix type="matrix" values="0 0 0 0 0.0470588 0 0 0 0 0.0470588 0 0 0 0 0.0509804 0 0 0 0.05 0"/>
<feBlend mode="normal" in2="BackgroundImageFix" result="effect1_dropShadow_112_78894"/>
<feColorMatrix in="SourceAlpha" type="matrix" values="0 0 0 0 0 0 0 0 0 0 0 0 0 0 0 0 0 0 127 0" result="hardAlpha"/>
<feOffset dy="1"/>
<feGaussianBlur stdDeviation="2"/>
<feComposite in2="hardAlpha" operator="out"/>
<feColorMatrix type="matrix" values="0 0 0 0 0.0470588 0 0 0 0 0.0470588 0 0 0 0 0.0509804 0 0 0 0.1 0"/>
<feBlend mode="normal" in2="effect1_dropShadow_112_78894" result="effect2_dropShadow_112_78894"/>
<feBlend mode="normal" in="SourceGraphic" in2="effect2_dropShadow_112_78894" result="shape"/>
</filter>
<filter id="filter9_dd_112_78894" x="218.775" y="35.875" width="55.15" height="82.3252" filterUnits="userSpaceOnUse" color-interpolation-filters="sRGB">
<feFlood flood-opacity="0" result="BackgroundImageFix"/>
<feColorMatrix in="SourceAlpha" type="matrix" values="0 0 0 0 0 0 0 0 0 0 0 0 0 0 0 0 0 0 127 0" result="hardAlpha"/>
<feOffset dy="1"/>
<feGaussianBlur stdDeviation="2"/>
<feComposite in2="hardAlpha" operator="out"/>
<feColorMatrix type="matrix" values="0 0 0 0 0.0470588 0 0 0 0 0.0470588 0 0 0 0 0.0509804 0 0 0 0.05 0"/>
<feBlend mode="normal" in2="BackgroundImageFix" result="effect1_dropShadow_112_78894"/>
<feColorMatrix in="SourceAlpha" type="matrix" values="0 0 0 0 0 0 0 0 0 0 0 0 0 0 0 0 0 0 127 0" result="hardAlpha"/>
<feOffset dy="1"/>
<feGaussianBlur stdDeviation="2"/>
<feComposite in2="hardAlpha" operator="out"/>
<feColorMatrix type="matrix" values="0 0 0 0 0.0470588 0 0 0 0 0.0470588 0 0 0 0 0.0509804 0 0 0 0.1 0"/>
<feBlend mode="normal" in2="effect1_dropShadow_112_78894" result="effect2_dropShadow_112_78894"/>
<feBlend mode="normal" in="SourceGraphic" in2="effect2_dropShadow_112_78894" result="shape"/>
</filter>
<filter id="filter10_dd_112_78894" x="167.613" y="14.8135" width="59.8737" height="124.487" filterUnits="userSpaceOnUse" color-interpolation-filters="sRGB">
<feFlood flood-opacity="0" result="BackgroundImageFix"/>
<feColorMatrix in="SourceAlpha" type="matrix" values="0 0 0 0 0 0 0 0 0 0 0 0 0 0 0 0 0 0 127 0" result="hardAlpha"/>
<feOffset dy="1"/>
<feGaussianBlur stdDeviation="2"/>
<feComposite in2="hardAlpha" operator="out"/>
<feColorMatrix type="matrix" values="0 0 0 0 0.0470588 0 0 0 0 0.0470588 0 0 0 0 0.0509804 0 0 0 0.05 0"/>
<feBlend mode="normal" in2="BackgroundImageFix" result="effect1_dropShadow_112_78894"/>
<feColorMatrix in="SourceAlpha" type="matrix" values="0 0 0 0 0 0 0 0 0 0 0 0 0 0 0 0 0 0 127 0" result="hardAlpha"/>
<feOffset dy="1"/>
<feGaussianBlur stdDeviation="2"/>
<feComposite in2="hardAlpha" operator="out"/>
<feColorMatrix type="matrix" values="0 0 0 0 0.0470588 0 0 0 0 0.0470588 0 0 0 0 0.0509804 0 0 0 0.1 0"/>
<feBlend mode="normal" in2="effect1_dropShadow_112_78894" result="effect2_dropShadow_112_78894"/>
<feBlend mode="normal" in="SourceGraphic" in2="effect2_dropShadow_112_78894" result="shape"/>
</filter>
<filter id="filter11_dd_112_78894" x="-4.03284" y="6.86719" width="115.466" height="103.033" filterUnits="userSpaceOnUse" color-interpolation-filters="sRGB">
<feFlood flood-opacity="0" result="BackgroundImageFix"/>
<feColorMatrix in="SourceAlpha" type="matrix" values="0 0 0 0 0 0 0 0 0 0 0 0 0 0 0 0 0 0 127 0" result="hardAlpha"/>
<feOffset dy="1"/>
<feGaussianBlur stdDeviation="2"/>
<feComposite in2="hardAlpha" operator="out"/>
<feColorMatrix type="matrix" values="0 0 0 0 0.0470588 0 0 0 0 0.0470588 0 0 0 0 0.0509804 0 0 0 0.05 0"/>
<feBlend mode="normal" in2="BackgroundImageFix" result="effect1_dropShadow_112_78894"/>
<feColorMatrix in="SourceAlpha" type="matrix" values="0 0 0 0 0 0 0 0 0 0 0 0 0 0 0 0 0 0 127 0" result="hardAlpha"/>
<feOffset dy="1"/>
<feGaussianBlur stdDeviation="2"/>
<feComposite in2="hardAlpha" operator="out"/>
<feColorMatrix type="matrix" values="0 0 0 0 0.0470588 0 0 0 0 0.0470588 0 0 0 0 0.0509804 0 0 0 0.1 0"/>
<feBlend mode="normal" in2="effect1_dropShadow_112_78894" result="effect2_dropShadow_112_78894"/>
<feBlend mode="normal" in="SourceGraphic" in2="effect2_dropShadow_112_78894" result="shape"/>
</filter>
<filter id="filter12_dd_112_78894" x="40.9" y="27" width="33" height="33" filterUnits="userSpaceOnUse" color-interpolation-filters="sRGB">
<feFlood flood-opacity="0" result="BackgroundImageFix"/>
<feColorMatrix in="SourceAlpha" type="matrix" values="0 0 0 0 0 0 0 0 0 0 0 0 0 0 0 0 0 0 127 0" result="hardAlpha"/>
<feOffset dy="1"/>
<feGaussianBlur stdDeviation="2"/>
<feComposite in2="hardAlpha" operator="out"/>
<feColorMatrix type="matrix" values="0 0 0 0 0.0470588 0 0 0 0 0.0470588 0 0 0 0 0.0509804 0 0 0 0.05 0"/>
<feBlend mode="normal" in2="BackgroundImageFix" result="effect1_dropShadow_112_78894"/>
<feColorMatrix in="SourceAlpha" type="matrix" values="0 0 0 0 0 0 0 0 0 0 0 0 0 0 0 0 0 0 127 0" result="hardAlpha"/>
<feOffset dy="1"/>
<feGaussianBlur stdDeviation="2"/>
<feComposite in2="hardAlpha" operator="out"/>
<feColorMatrix type="matrix" values="0 0 0 0 0.0470588 0 0 0 0 0.0470588 0 0 0 0 0.0509804 0 0 0 0.1 0"/>
<feBlend mode="normal" in2="effect1_dropShadow_112_78894" result="effect2_dropShadow_112_78894"/>
<feBlend mode="normal" in="SourceGraphic" in2="effect2_dropShadow_112_78894" result="shape"/>
</filter>
<filter id="filter13_dd_112_78894" x="100.9" y="27" width="33" height="33" filterUnits="userSpaceOnUse" color-interpolation-filters="sRGB">
<feFlood flood-opacity="0" result="BackgroundImageFix"/>
<feColorMatrix in="SourceAlpha" type="matrix" values="0 0 0 0 0 0 0 0 0 0 0 0 0 0 0 0 0 0 127 0" result="hardAlpha"/>
<feOffset dy="1"/>
<feGaussianBlur stdDeviation="2"/>
<feComposite in2="hardAlpha" operator="out"/>
<feColorMatrix type="matrix" values="0 0 0 0 0.0470588 0 0 0 0 0.0470588 0 0 0 0 0.0509804 0 0 0 0.05 0"/>
<feBlend mode="normal" in2="BackgroundImageFix" result="effect1_dropShadow_112_78894"/>
<feColorMatrix in="SourceAlpha" type="matrix" values="0 0 0 0 0 0 0 0 0 0 0 0 0 0 0 0 0 0 127 0" result="hardAlpha"/>
<feOffset dy="1"/>
<feGaussianBlur stdDeviation="2"/>
<feComposite in2="hardAlpha" operator="out"/>
<feColorMatrix type="matrix" values="0 0 0 0 0.0470588 0 0 0 0 0.0470588 0 0 0 0 0.0509804 0 0 0 0.1 0"/>
<feBlend mode="normal" in2="effect1_dropShadow_112_78894" result="effect2_dropShadow_112_78894"/>
<feBlend mode="normal" in="SourceGraphic" in2="effect2_dropShadow_112_78894" result="shape"/>
</filter>
<filter id="filter14_dd_112_78894" x="130.9" y="87" width="33" height="33" filterUnits="userSpaceOnUse" color-interpolation-filters="sRGB">
<feFlood flood-opacity="0" result="BackgroundImageFix"/>
<feColorMatrix in="SourceAlpha" type="matrix" values="0 0 0 0 0 0 0 0 0 0 0 0 0 0 0 0 0 0 127 0" result="hardAlpha"/>
<feOffset dy="1"/>
<feGaussianBlur stdDeviation="2"/>
<feComposite in2="hardAlpha" operator="out"/>
<feColorMatrix type="matrix" values="0 0 0 0 0.0470588 0 0 0 0 0.0470588 0 0 0 0 0.0509804 0 0 0 0.05 0"/>
<feBlend mode="normal" in2="BackgroundImageFix" result="effect1_dropShadow_112_78894"/>
<feColorMatrix in="SourceAlpha" type="matrix" values="0 0 0 0 0 0 0 0 0 0 0 0 0 0 0 0 0 0 127 0" result="hardAlpha"/>
<feOffset dy="1"/>
<feGaussianBlur stdDeviation="2"/>
<feComposite in2="hardAlpha" operator="out"/>
<feColorMatrix type="matrix" values="0 0 0 0 0.0470588 0 0 0 0 0.0470588 0 0 0 0 0.0509804 0 0 0 0.1 0"/>
<feBlend mode="normal" in2="effect1_dropShadow_112_78894" result="effect2_dropShadow_112_78894"/>
<feBlend mode="normal" in="SourceGraphic" in2="effect2_dropShadow_112_78894" result="shape"/>
</filter>
<clipPath id="clip0_112_78894">
<rect width="270" height="134.3" fill="white"/>
</clipPath>
</defs>
</svg>
