<?xml version="1.0" encoding="UTF-8"?>
<svg id="Layer_2" data-name="Layer 2" xmlns="http://www.w3.org/2000/svg" viewBox="0 0 121 106.3">
  <defs>
    <style>
      .cls-1 {
        fill: #ded5ff;
        stroke: #aca1e5;
      }

      .cls-1, .cls-2 {
        stroke-miterlimit: 10;
      }

      .cls-2 {
        fill: #aa9aff;
        stroke: #7e73e5;
      }
    </style>
  </defs>
  <g id="Layer_1-2" data-name="Layer 1">
    <g>
      <path class="cls-1" d="M40.5,30.5v50c0,2.8,2.2,5,5,5h51c.1.3.3.7.6.9l18.5,18.5c1.8,1.8,4.9.5,4.9-2V30.5c0-2.8-2.2-5-5-5H45.5c-2.8,0-5,2.2-5,5Z"/>
      <path class="cls-2" d="M80.5,5.5v50c0,2.8-2.2,5-5,5H24.5c-.1.3-.3.7-.6.9l-18.5,18.5c-1.8,1.8-4.9.5-4.9-2V5.5C.5,2.7,2.7.5,5.5.5h70c2.8,0,5,2.2,5,5Z"/>
    </g>
  </g>
</svg>