<svg width="600" height="350" viewBox="0 0 600 350" fill="none" xmlns="http://www.w3.org/2000/svg">
<g clip-path="url(#clip0_4689_20797)">
<rect width="600" height="350" rx="8" fill="#BAE6FD"/>
<rect width="600" height="150" transform="translate(0 200)" fill="#7DD3FC"/>
<path d="M54 358.5L235.5 200H373.5L545.5 358.5H54Z" fill="white" fill-opacity="0.2"/>
<path d="M182.727 200.445C173.462 200.445 165.003 195.611 160.371 187.555C155.739 179.6 155.739 169.832 160.371 161.776C165.003 153.821 173.462 148.887 182.727 148.887C191.89 148.887 200.349 153.821 204.981 161.776C209.613 169.832 209.613 179.6 204.981 187.555C200.349 195.611 191.89 200.445 182.727 200.445Z" fill="white"/>
<g filter="url(#filter0_dd_4689_20797)">
<path d="M192.394 174.666C192.394 176.982 192.192 179.097 191.991 181.111H173.361C173.16 179.097 173.059 176.982 173.059 174.666C173.059 172.45 173.16 170.336 173.361 168.221H191.991C192.192 170.336 192.394 172.45 192.394 174.666ZM195.213 168.221H207.599C208.204 170.336 208.506 172.45 208.506 174.666C208.506 176.982 208.204 179.097 207.599 181.111H195.213C195.415 179.097 195.616 176.881 195.616 174.666C195.616 172.45 195.415 170.336 195.213 168.221ZM206.592 164.999H194.811C193.804 158.655 191.79 153.217 189.272 149.793C197.127 151.908 203.571 157.547 206.592 164.999ZM191.588 164.999H173.764C174.368 161.373 175.375 158.151 176.483 155.533C177.591 153.116 178.699 151.404 179.907 150.296C181.015 149.289 181.921 148.887 182.727 148.887C183.431 148.887 184.338 149.289 185.445 150.296C186.654 151.404 187.762 153.116 188.869 155.533C189.977 158.151 190.984 161.373 191.588 164.999ZM170.542 164.999H158.76C161.781 157.547 168.226 151.908 176.08 149.793C173.563 153.217 171.549 158.655 170.542 164.999ZM157.753 168.221H170.139C169.938 170.336 169.837 172.45 169.837 174.666C169.837 176.881 169.938 179.097 170.139 181.111H157.753C157.149 179.097 156.947 176.982 156.947 174.666C156.947 172.45 157.149 170.336 157.753 168.221ZM176.483 193.9C175.375 191.281 174.368 188.059 173.764 184.333H191.588C190.984 188.059 189.977 191.281 188.869 193.9C187.762 196.316 186.654 198.028 185.445 199.136C184.338 200.143 183.431 200.445 182.727 200.445C181.921 200.445 181.015 200.143 179.907 199.136C178.699 198.028 177.591 196.316 176.483 193.9ZM170.542 184.333C171.549 190.778 173.563 196.216 176.08 199.639C168.226 197.525 161.781 191.886 158.76 184.333H170.542ZM206.592 184.333C203.571 191.886 197.127 197.525 189.272 199.639C191.89 196.216 193.804 190.778 194.811 184.333H206.592Z" fill="#075985"/>
</g>
<path d="M224.839 175.801L297.343 132.082" stroke="#0284C7" stroke-width="3.2224" stroke-linecap="round" stroke-dasharray="8.06 8.06"/>
<path d="M224.839 175.585L298.161 217.917" stroke="#0284C7" stroke-width="3.2224" stroke-linecap="round" stroke-dasharray="8.06 8.06"/>
<g filter="url(#filter1_dd_4689_20797)">
<rect x="318.3" y="125.053" width="120.84" height="100.7" rx="6.4448" fill="white"/>
<path d="M386.246 161.977C387.958 162.481 388.965 164.193 388.462 165.905L375.572 211.018C375.069 212.73 373.357 213.737 371.645 213.234C369.933 212.73 368.926 211.018 369.43 209.306L382.319 164.193C382.823 162.481 384.535 161.474 386.246 161.977ZM394.403 174.061C395.612 172.752 397.726 172.752 398.935 174.061L410.213 185.34C411.522 186.548 411.522 188.663 410.213 189.871L398.935 201.15C397.726 202.459 395.612 202.459 394.403 201.15C393.094 199.941 393.094 197.827 394.403 196.618L403.366 187.555L394.403 178.593C393.094 177.385 393.094 175.27 394.403 174.061ZM363.488 174.061C364.797 175.27 364.797 177.385 363.488 178.593L354.526 187.555L363.488 196.618C364.797 197.827 364.797 199.941 363.488 201.15C362.28 202.459 360.165 202.459 358.957 201.15L347.678 189.871C346.369 188.663 346.369 186.548 347.678 185.34L358.957 174.061C360.165 172.752 362.28 172.752 363.488 174.061Z" fill="#075985"/>
<path d="M354.604 126.828V142.94H435.164V134.884C435.164 130.604 431.388 126.828 427.108 126.828H354.604ZM346.548 126.828H330.436C325.905 126.828 322.38 130.604 322.38 134.884V142.94H346.548V126.828ZM322.38 150.996V215.444C322.38 219.975 325.905 223.5 330.436 223.5H427.108C431.388 223.5 435.164 219.975 435.164 215.444V150.996H350.576H322.38ZM314.324 134.884C314.324 126.073 321.373 118.772 330.436 118.772H427.108C435.92 118.772 443.221 126.073 443.221 134.884V215.444C443.221 224.507 435.92 231.556 427.108 231.556H330.436C321.373 231.556 314.324 224.507 314.324 215.444V134.884Z" fill="#075985"/>
</g>
</g>
<defs>
<filter id="filter0_dd_4689_20797" x="154.31" y="147.276" width="56.8336" height="56.7262" filterUnits="userSpaceOnUse" color-interpolation-filters="sRGB">
<feFlood flood-opacity="0" result="BackgroundImageFix"/>
<feColorMatrix in="SourceAlpha" type="matrix" values="0 0 0 0 0 0 0 0 0 0 0 0 0 0 0 0 0 0 127 0" result="hardAlpha"/>
<feOffset dy="0.805601"/>
<feGaussianBlur stdDeviation="0.805601"/>
<feColorMatrix type="matrix" values="0 0 0 0 0 0 0 0 0 0 0 0 0 0 0 0 0 0 0.06 0"/>
<feBlend mode="normal" in2="BackgroundImageFix" result="effect1_dropShadow_4689_20797"/>
<feColorMatrix in="SourceAlpha" type="matrix" values="0 0 0 0 0 0 0 0 0 0 0 0 0 0 0 0 0 0 127 0" result="hardAlpha"/>
<feOffset dy="0.805601"/>
<feGaussianBlur stdDeviation="1.2084"/>
<feColorMatrix type="matrix" values="0 0 0 0 0 0 0 0 0 0 0 0 0 0 0 0 0 0 0.1 0"/>
<feBlend mode="normal" in2="effect1_dropShadow_4689_20797" result="effect2_dropShadow_4689_20797"/>
<feBlend mode="normal" in="SourceGraphic" in2="effect2_dropShadow_4689_20797" result="shape"/>
</filter>
<filter id="filter1_dd_4689_20797" x="311.856" y="108.941" width="133.834" height="133.73" filterUnits="userSpaceOnUse" color-interpolation-filters="sRGB">
<feFlood flood-opacity="0" result="BackgroundImageFix"/>
<feColorMatrix in="SourceAlpha" type="matrix" values="0 0 0 0 0 0 0 0 0 0 0 0 0 0 0 0 0 0 127 0" result="hardAlpha"/>
<feOffset dy="0.805601"/>
<feGaussianBlur stdDeviation="0.805601"/>
<feColorMatrix type="matrix" values="0 0 0 0 0 0 0 0 0 0 0 0 0 0 0 0 0 0 0.06 0"/>
<feBlend mode="normal" in2="BackgroundImageFix" result="effect1_dropShadow_4689_20797"/>
<feColorMatrix in="SourceAlpha" type="matrix" values="0 0 0 0 0 0 0 0 0 0 0 0 0 0 0 0 0 0 127 0" result="hardAlpha"/>
<feOffset dy="0.805601"/>
<feGaussianBlur stdDeviation="1.2084"/>
<feColorMatrix type="matrix" values="0 0 0 0 0 0 0 0 0 0 0 0 0 0 0 0 0 0 0.1 0"/>
<feBlend mode="normal" in2="effect1_dropShadow_4689_20797" result="effect2_dropShadow_4689_20797"/>
<feBlend mode="normal" in="SourceGraphic" in2="effect2_dropShadow_4689_20797" result="shape"/>
</filter>
<clipPath id="clip0_4689_20797">
<rect width="600" height="350" rx="8" fill="white"/>
</clipPath>
</defs>
</svg>
