<svg width="294" height="330" viewBox="0 0 294 330" fill="none" xmlns="http://www.w3.org/2000/svg">
<g clip-path="url(#clip0_108_78845)">
<g filter="url(#filter0_dd_108_78845)">
<path d="M125 164.5C125 173 123.3 181.3 120 189C116.8 196.5 112.3 203.3 106.5 209C100.7 214.8 94.0001 219.3 86.5001 222.5C78.7001 225.8 70.5001 227.5 62.0001 227.5C53.5001 227.5 53.7001 227.1 49.7001 226.3L45.3001 234.9L24.4001 202.2L63.2001 200.4L59.3001 208C60.2001 208 61.2001 208 62.1001 208C68.0001 208 73.7001 206.9 79.1001 204.6C84.3001 202.4 89.0001 199.3 93.0001 195.3C97.0001 191.3 100.1 186.6 102.3 181.4C104.6 176 105.7 170.3 105.7 164.4C105.7 158.5 104.6 152.8 102.3 147.4C100.2 142.4 102.5 136.7 107.5 134.6C112.5 132.5 118.2 134.8 120.3 139.8C123.6 147.6 125.3 155.8 125.3 164.3L125 164.5Z" fill="#AE7DCE"/>
</g>
<g filter="url(#filter1_dd_108_78845)">
<path d="M61.9001 129.7L65.8 122.1C64.9 122.1 63.9 122.1 63 122.1C57.1 122.1 51.4 123.3 46 125.5C40.8 127.7 36.2 130.8 32.1 134.8C28.1 138.8 25 143.5 22.8 148.7C20.5 154.1 19.4 159.8 19.4 165.7C19.4 171.6 20.6 177.3 22.8 182.7C24.9 187.7 22.6 193.4 17.6 195.5C16.4 196 15.1 196.3 13.8 196.3C10 196.3 6.40005 194.1 4.80005 190.4C1.50005 182.6 -0.199951 174.4 -0.199951 165.9C-0.199951 157.4 1.50005 149.1 4.80005 141.4C8.00005 133.9 12.5 127.1 18.3 121.4C24.1 115.6 30.8 111.1 38.3 107.9C46.1 104.6 54.3 102.9 62.8 102.9C71.3 102.9 71.1 103.3 75.1 104.1L79.5 95.5996L100.4 128.3L61.6 130.1L61.9001 129.7Z" fill="#AE7DCE"/>
</g>
<g filter="url(#filter2_dd_108_78845)">
<path d="M132 94.9997C129.8 94.9997 127.6 94.2997 125.8 92.9997L91.4001 68.8997C86.5001 65.4997 85.3001 58.6997 88.7001 53.7997C92.1001 48.8997 98.9001 47.6997 103.8 51.0997L127.7 67.7997C128.6 68.3997 129.9 68.1997 130.5 67.2997L174.5 4.59966C177.9 -0.300335 184.7 -1.50034 189.6 1.89966C194.5 5.29967 195.7 12.0997 192.3 16.9997L140.9 90.3997C139.3 92.7997 136.7 94.3997 133.9 94.7997C133.3 94.8997 132.6 94.9997 132 94.9997Z" fill="#8CC63F"/>
</g>
<g filter="url(#filter3_dd_108_78845)">
<path d="M193.7 107.699C193.7 100.796 188.104 95.1992 181.2 95.1992C174.297 95.1992 168.7 100.796 168.7 107.699C168.7 114.603 174.297 120.199 181.2 120.199C188.104 120.199 193.7 114.603 193.7 107.699Z" fill="#578DFE"/>
</g>
<g filter="url(#filter4_dd_108_78845)">
<path d="M283.7 95.1992H203.7C200.939 95.1992 198.7 97.4378 198.7 100.199V115.199C198.7 117.961 200.939 120.199 203.7 120.199H283.7C286.462 120.199 288.7 117.961 288.7 115.199V100.199C288.7 97.4378 286.462 95.1992 283.7 95.1992Z" fill="#AEC7FF"/>
</g>
<g filter="url(#filter5_dd_108_78845)">
<path d="M193.7 142.699C193.7 135.796 188.104 130.199 181.2 130.199C174.297 130.199 168.7 135.796 168.7 142.699C168.7 149.603 174.297 155.199 181.2 155.199C188.104 155.199 193.7 149.603 193.7 142.699Z" fill="#578DFE"/>
</g>
<g filter="url(#filter6_dd_108_78845)">
<path d="M268.7 130.199H203.7C200.939 130.199 198.7 132.438 198.7 135.199V150.199C198.7 152.961 200.939 155.199 203.7 155.199H268.7C271.462 155.199 273.7 152.961 273.7 150.199V135.199C273.7 132.438 271.462 130.199 268.7 130.199Z" fill="#AEC7FF"/>
</g>
<g filter="url(#filter7_dd_108_78845)">
<path d="M193.7 177.699C193.7 170.796 188.104 165.199 181.2 165.199C174.297 165.199 168.7 170.796 168.7 177.699C168.7 184.603 174.297 190.199 181.2 190.199C188.104 190.199 193.7 184.603 193.7 177.699Z" fill="#578DFE"/>
</g>
<g filter="url(#filter8_dd_108_78845)">
<path d="M288.7 165.199H203.7C200.939 165.199 198.7 167.438 198.7 170.199V185.199C198.7 187.961 200.939 190.199 203.7 190.199H288.7C291.462 190.199 293.7 187.961 293.7 185.199V170.199C293.7 167.438 291.462 165.199 288.7 165.199Z" fill="#AEC7FF"/>
</g>
<g filter="url(#filter9_dd_108_78845)">
<path d="M123.9 308.399C121.3 308.399 118.8 307.399 116.8 305.499L89.6 278.299C85.7 274.399 85.7 268.099 89.6 264.199L116.8 236.999C120.7 233.099 127 233.099 130.9 236.999C134.8 240.899 134.8 247.199 130.9 251.099L112.2 269.799C111.4 270.599 111.4 271.799 112.2 272.599L130.7 291.099C134.4 294.799 134.9 300.899 131.4 304.899C127.9 308.899 126.6 308.399 123.8 308.399H123.9Z" fill="#AA9AFF"/>
</g>
<g filter="url(#filter10_dd_108_78845)">
<path d="M194.6 308.399C191.8 308.399 189 307.199 187 304.899C183.5 300.899 184 294.799 187.7 291.099L206.2 272.599C207 271.799 207 270.599 206.2 269.799L187.5 251.099C183.6 247.199 183.6 240.899 187.5 236.999C191.4 233.099 197.7 233.099 201.6 236.999L228.8 264.199C232.7 268.099 232.7 274.399 228.8 278.299L201.6 305.499C199.6 307.499 197.1 308.399 194.5 308.399H194.6Z" fill="#AA9AFF"/>
</g>
<g filter="url(#filter11_dd_108_78845)">
<path d="M143.4 329.5C142.4 329.5 141.3 329.3 140.3 329C135.1 327.3 132.2 321.6 133.9 316.4L165.8 219.9C167.5 214.7 173.2 211.8 178.4 213.5C183.6 215.2 186.5 220.9 184.8 226.1L152.9 322.6C151.5 326.8 147.6 329.5 143.4 329.5Z" fill="#DED5FF"/>
</g>
</g>
<defs>
<filter id="filter0_dd_108_78845" x="20.4001" y="130.823" width="108.9" height="109.076" filterUnits="userSpaceOnUse" color-interpolation-filters="sRGB">
<feFlood flood-opacity="0" result="BackgroundImageFix"/>
<feColorMatrix in="SourceAlpha" type="matrix" values="0 0 0 0 0 0 0 0 0 0 0 0 0 0 0 0 0 0 127 0" result="hardAlpha"/>
<feOffset dy="1"/>
<feGaussianBlur stdDeviation="2"/>
<feComposite in2="hardAlpha" operator="out"/>
<feColorMatrix type="matrix" values="0 0 0 0 0.0470588 0 0 0 0 0.0470588 0 0 0 0 0.0509804 0 0 0 0.05 0"/>
<feBlend mode="normal" in2="BackgroundImageFix" result="effect1_dropShadow_108_78845"/>
<feColorMatrix in="SourceAlpha" type="matrix" values="0 0 0 0 0 0 0 0 0 0 0 0 0 0 0 0 0 0 127 0" result="hardAlpha"/>
<feOffset dy="1"/>
<feGaussianBlur stdDeviation="2"/>
<feComposite in2="hardAlpha" operator="out"/>
<feColorMatrix type="matrix" values="0 0 0 0 0.0470588 0 0 0 0 0.0470588 0 0 0 0 0.0509804 0 0 0 0.1 0"/>
<feBlend mode="normal" in2="effect1_dropShadow_108_78845" result="effect2_dropShadow_108_78845"/>
<feBlend mode="normal" in="SourceGraphic" in2="effect2_dropShadow_108_78845" result="shape"/>
</filter>
<filter id="filter1_dd_108_78845" x="-4.19995" y="92.5996" width="108.6" height="108.7" filterUnits="userSpaceOnUse" color-interpolation-filters="sRGB">
<feFlood flood-opacity="0" result="BackgroundImageFix"/>
<feColorMatrix in="SourceAlpha" type="matrix" values="0 0 0 0 0 0 0 0 0 0 0 0 0 0 0 0 0 0 127 0" result="hardAlpha"/>
<feOffset dy="1"/>
<feGaussianBlur stdDeviation="2"/>
<feComposite in2="hardAlpha" operator="out"/>
<feColorMatrix type="matrix" values="0 0 0 0 0.0470588 0 0 0 0 0.0470588 0 0 0 0 0.0509804 0 0 0 0.05 0"/>
<feBlend mode="normal" in2="BackgroundImageFix" result="effect1_dropShadow_108_78845"/>
<feColorMatrix in="SourceAlpha" type="matrix" values="0 0 0 0 0 0 0 0 0 0 0 0 0 0 0 0 0 0 127 0" result="hardAlpha"/>
<feOffset dy="1"/>
<feGaussianBlur stdDeviation="2"/>
<feComposite in2="hardAlpha" operator="out"/>
<feColorMatrix type="matrix" values="0 0 0 0 0.0470588 0 0 0 0 0.0470588 0 0 0 0 0.0509804 0 0 0 0.1 0"/>
<feBlend mode="normal" in2="effect1_dropShadow_108_78845" result="effect2_dropShadow_108_78845"/>
<feBlend mode="normal" in="SourceGraphic" in2="effect2_dropShadow_108_78845" result="shape"/>
</filter>
<filter id="filter2_dd_108_78845" x="82.7672" y="-3.0332" width="115.466" height="103.033" filterUnits="userSpaceOnUse" color-interpolation-filters="sRGB">
<feFlood flood-opacity="0" result="BackgroundImageFix"/>
<feColorMatrix in="SourceAlpha" type="matrix" values="0 0 0 0 0 0 0 0 0 0 0 0 0 0 0 0 0 0 127 0" result="hardAlpha"/>
<feOffset dy="1"/>
<feGaussianBlur stdDeviation="2"/>
<feComposite in2="hardAlpha" operator="out"/>
<feColorMatrix type="matrix" values="0 0 0 0 0.0470588 0 0 0 0 0.0470588 0 0 0 0 0.0509804 0 0 0 0.05 0"/>
<feBlend mode="normal" in2="BackgroundImageFix" result="effect1_dropShadow_108_78845"/>
<feColorMatrix in="SourceAlpha" type="matrix" values="0 0 0 0 0 0 0 0 0 0 0 0 0 0 0 0 0 0 127 0" result="hardAlpha"/>
<feOffset dy="1"/>
<feGaussianBlur stdDeviation="2"/>
<feComposite in2="hardAlpha" operator="out"/>
<feColorMatrix type="matrix" values="0 0 0 0 0.0470588 0 0 0 0 0.0470588 0 0 0 0 0.0509804 0 0 0 0.1 0"/>
<feBlend mode="normal" in2="effect1_dropShadow_108_78845" result="effect2_dropShadow_108_78845"/>
<feBlend mode="normal" in="SourceGraphic" in2="effect2_dropShadow_108_78845" result="shape"/>
</filter>
<filter id="filter3_dd_108_78845" x="164.7" y="92.1992" width="33" height="33" filterUnits="userSpaceOnUse" color-interpolation-filters="sRGB">
<feFlood flood-opacity="0" result="BackgroundImageFix"/>
<feColorMatrix in="SourceAlpha" type="matrix" values="0 0 0 0 0 0 0 0 0 0 0 0 0 0 0 0 0 0 127 0" result="hardAlpha"/>
<feOffset dy="1"/>
<feGaussianBlur stdDeviation="2"/>
<feComposite in2="hardAlpha" operator="out"/>
<feColorMatrix type="matrix" values="0 0 0 0 0.0470588 0 0 0 0 0.0470588 0 0 0 0 0.0509804 0 0 0 0.05 0"/>
<feBlend mode="normal" in2="BackgroundImageFix" result="effect1_dropShadow_108_78845"/>
<feColorMatrix in="SourceAlpha" type="matrix" values="0 0 0 0 0 0 0 0 0 0 0 0 0 0 0 0 0 0 127 0" result="hardAlpha"/>
<feOffset dy="1"/>
<feGaussianBlur stdDeviation="2"/>
<feComposite in2="hardAlpha" operator="out"/>
<feColorMatrix type="matrix" values="0 0 0 0 0.0470588 0 0 0 0 0.0470588 0 0 0 0 0.0509804 0 0 0 0.1 0"/>
<feBlend mode="normal" in2="effect1_dropShadow_108_78845" result="effect2_dropShadow_108_78845"/>
<feBlend mode="normal" in="SourceGraphic" in2="effect2_dropShadow_108_78845" result="shape"/>
</filter>
<filter id="filter4_dd_108_78845" x="194.7" y="92.1992" width="98" height="33" filterUnits="userSpaceOnUse" color-interpolation-filters="sRGB">
<feFlood flood-opacity="0" result="BackgroundImageFix"/>
<feColorMatrix in="SourceAlpha" type="matrix" values="0 0 0 0 0 0 0 0 0 0 0 0 0 0 0 0 0 0 127 0" result="hardAlpha"/>
<feOffset dy="1"/>
<feGaussianBlur stdDeviation="2"/>
<feComposite in2="hardAlpha" operator="out"/>
<feColorMatrix type="matrix" values="0 0 0 0 0.0470588 0 0 0 0 0.0470588 0 0 0 0 0.0509804 0 0 0 0.05 0"/>
<feBlend mode="normal" in2="BackgroundImageFix" result="effect1_dropShadow_108_78845"/>
<feColorMatrix in="SourceAlpha" type="matrix" values="0 0 0 0 0 0 0 0 0 0 0 0 0 0 0 0 0 0 127 0" result="hardAlpha"/>
<feOffset dy="1"/>
<feGaussianBlur stdDeviation="2"/>
<feComposite in2="hardAlpha" operator="out"/>
<feColorMatrix type="matrix" values="0 0 0 0 0.0470588 0 0 0 0 0.0470588 0 0 0 0 0.0509804 0 0 0 0.1 0"/>
<feBlend mode="normal" in2="effect1_dropShadow_108_78845" result="effect2_dropShadow_108_78845"/>
<feBlend mode="normal" in="SourceGraphic" in2="effect2_dropShadow_108_78845" result="shape"/>
</filter>
<filter id="filter5_dd_108_78845" x="164.7" y="127.199" width="33" height="33" filterUnits="userSpaceOnUse" color-interpolation-filters="sRGB">
<feFlood flood-opacity="0" result="BackgroundImageFix"/>
<feColorMatrix in="SourceAlpha" type="matrix" values="0 0 0 0 0 0 0 0 0 0 0 0 0 0 0 0 0 0 127 0" result="hardAlpha"/>
<feOffset dy="1"/>
<feGaussianBlur stdDeviation="2"/>
<feComposite in2="hardAlpha" operator="out"/>
<feColorMatrix type="matrix" values="0 0 0 0 0.0470588 0 0 0 0 0.0470588 0 0 0 0 0.0509804 0 0 0 0.05 0"/>
<feBlend mode="normal" in2="BackgroundImageFix" result="effect1_dropShadow_108_78845"/>
<feColorMatrix in="SourceAlpha" type="matrix" values="0 0 0 0 0 0 0 0 0 0 0 0 0 0 0 0 0 0 127 0" result="hardAlpha"/>
<feOffset dy="1"/>
<feGaussianBlur stdDeviation="2"/>
<feComposite in2="hardAlpha" operator="out"/>
<feColorMatrix type="matrix" values="0 0 0 0 0.0470588 0 0 0 0 0.0470588 0 0 0 0 0.0509804 0 0 0 0.1 0"/>
<feBlend mode="normal" in2="effect1_dropShadow_108_78845" result="effect2_dropShadow_108_78845"/>
<feBlend mode="normal" in="SourceGraphic" in2="effect2_dropShadow_108_78845" result="shape"/>
</filter>
<filter id="filter6_dd_108_78845" x="194.7" y="127.199" width="83" height="33" filterUnits="userSpaceOnUse" color-interpolation-filters="sRGB">
<feFlood flood-opacity="0" result="BackgroundImageFix"/>
<feColorMatrix in="SourceAlpha" type="matrix" values="0 0 0 0 0 0 0 0 0 0 0 0 0 0 0 0 0 0 127 0" result="hardAlpha"/>
<feOffset dy="1"/>
<feGaussianBlur stdDeviation="2"/>
<feComposite in2="hardAlpha" operator="out"/>
<feColorMatrix type="matrix" values="0 0 0 0 0.0470588 0 0 0 0 0.0470588 0 0 0 0 0.0509804 0 0 0 0.05 0"/>
<feBlend mode="normal" in2="BackgroundImageFix" result="effect1_dropShadow_108_78845"/>
<feColorMatrix in="SourceAlpha" type="matrix" values="0 0 0 0 0 0 0 0 0 0 0 0 0 0 0 0 0 0 127 0" result="hardAlpha"/>
<feOffset dy="1"/>
<feGaussianBlur stdDeviation="2"/>
<feComposite in2="hardAlpha" operator="out"/>
<feColorMatrix type="matrix" values="0 0 0 0 0.0470588 0 0 0 0 0.0470588 0 0 0 0 0.0509804 0 0 0 0.1 0"/>
<feBlend mode="normal" in2="effect1_dropShadow_108_78845" result="effect2_dropShadow_108_78845"/>
<feBlend mode="normal" in="SourceGraphic" in2="effect2_dropShadow_108_78845" result="shape"/>
</filter>
<filter id="filter7_dd_108_78845" x="164.7" y="162.199" width="33" height="33" filterUnits="userSpaceOnUse" color-interpolation-filters="sRGB">
<feFlood flood-opacity="0" result="BackgroundImageFix"/>
<feColorMatrix in="SourceAlpha" type="matrix" values="0 0 0 0 0 0 0 0 0 0 0 0 0 0 0 0 0 0 127 0" result="hardAlpha"/>
<feOffset dy="1"/>
<feGaussianBlur stdDeviation="2"/>
<feComposite in2="hardAlpha" operator="out"/>
<feColorMatrix type="matrix" values="0 0 0 0 0.0470588 0 0 0 0 0.0470588 0 0 0 0 0.0509804 0 0 0 0.05 0"/>
<feBlend mode="normal" in2="BackgroundImageFix" result="effect1_dropShadow_108_78845"/>
<feColorMatrix in="SourceAlpha" type="matrix" values="0 0 0 0 0 0 0 0 0 0 0 0 0 0 0 0 0 0 127 0" result="hardAlpha"/>
<feOffset dy="1"/>
<feGaussianBlur stdDeviation="2"/>
<feComposite in2="hardAlpha" operator="out"/>
<feColorMatrix type="matrix" values="0 0 0 0 0.0470588 0 0 0 0 0.0470588 0 0 0 0 0.0509804 0 0 0 0.1 0"/>
<feBlend mode="normal" in2="effect1_dropShadow_108_78845" result="effect2_dropShadow_108_78845"/>
<feBlend mode="normal" in="SourceGraphic" in2="effect2_dropShadow_108_78845" result="shape"/>
</filter>
<filter id="filter8_dd_108_78845" x="194.7" y="162.199" width="103" height="33" filterUnits="userSpaceOnUse" color-interpolation-filters="sRGB">
<feFlood flood-opacity="0" result="BackgroundImageFix"/>
<feColorMatrix in="SourceAlpha" type="matrix" values="0 0 0 0 0 0 0 0 0 0 0 0 0 0 0 0 0 0 127 0" result="hardAlpha"/>
<feOffset dy="1"/>
<feGaussianBlur stdDeviation="2"/>
<feComposite in2="hardAlpha" operator="out"/>
<feColorMatrix type="matrix" values="0 0 0 0 0.0470588 0 0 0 0 0.0470588 0 0 0 0 0.0509804 0 0 0 0.05 0"/>
<feBlend mode="normal" in2="BackgroundImageFix" result="effect1_dropShadow_108_78845"/>
<feColorMatrix in="SourceAlpha" type="matrix" values="0 0 0 0 0 0 0 0 0 0 0 0 0 0 0 0 0 0 127 0" result="hardAlpha"/>
<feOffset dy="1"/>
<feGaussianBlur stdDeviation="2"/>
<feComposite in2="hardAlpha" operator="out"/>
<feColorMatrix type="matrix" values="0 0 0 0 0.0470588 0 0 0 0 0.0470588 0 0 0 0 0.0509804 0 0 0 0.1 0"/>
<feBlend mode="normal" in2="effect1_dropShadow_108_78845" result="effect2_dropShadow_108_78845"/>
<feBlend mode="normal" in="SourceGraphic" in2="effect2_dropShadow_108_78845" result="shape"/>
</filter>
<filter id="filter9_dd_108_78845" x="82.675" y="231.074" width="55.15" height="82.3447" filterUnits="userSpaceOnUse" color-interpolation-filters="sRGB">
<feFlood flood-opacity="0" result="BackgroundImageFix"/>
<feColorMatrix in="SourceAlpha" type="matrix" values="0 0 0 0 0 0 0 0 0 0 0 0 0 0 0 0 0 0 127 0" result="hardAlpha"/>
<feOffset dy="1"/>
<feGaussianBlur stdDeviation="2"/>
<feComposite in2="hardAlpha" operator="out"/>
<feColorMatrix type="matrix" values="0 0 0 0 0.0470588 0 0 0 0 0.0470588 0 0 0 0 0.0509804 0 0 0 0.05 0"/>
<feBlend mode="normal" in2="BackgroundImageFix" result="effect1_dropShadow_108_78845"/>
<feColorMatrix in="SourceAlpha" type="matrix" values="0 0 0 0 0 0 0 0 0 0 0 0 0 0 0 0 0 0 127 0" result="hardAlpha"/>
<feOffset dy="1"/>
<feGaussianBlur stdDeviation="2"/>
<feComposite in2="hardAlpha" operator="out"/>
<feColorMatrix type="matrix" values="0 0 0 0 0.0470588 0 0 0 0 0.0470588 0 0 0 0 0.0509804 0 0 0 0.1 0"/>
<feBlend mode="normal" in2="effect1_dropShadow_108_78845" result="effect2_dropShadow_108_78845"/>
<feBlend mode="normal" in="SourceGraphic" in2="effect2_dropShadow_108_78845" result="shape"/>
</filter>
<filter id="filter10_dd_108_78845" x="180.575" y="231.074" width="55.15" height="82.3252" filterUnits="userSpaceOnUse" color-interpolation-filters="sRGB">
<feFlood flood-opacity="0" result="BackgroundImageFix"/>
<feColorMatrix in="SourceAlpha" type="matrix" values="0 0 0 0 0 0 0 0 0 0 0 0 0 0 0 0 0 0 127 0" result="hardAlpha"/>
<feOffset dy="1"/>
<feGaussianBlur stdDeviation="2"/>
<feComposite in2="hardAlpha" operator="out"/>
<feColorMatrix type="matrix" values="0 0 0 0 0.0470588 0 0 0 0 0.0470588 0 0 0 0 0.0509804 0 0 0 0.05 0"/>
<feBlend mode="normal" in2="BackgroundImageFix" result="effect1_dropShadow_108_78845"/>
<feColorMatrix in="SourceAlpha" type="matrix" values="0 0 0 0 0 0 0 0 0 0 0 0 0 0 0 0 0 0 127 0" result="hardAlpha"/>
<feOffset dy="1"/>
<feGaussianBlur stdDeviation="2"/>
<feComposite in2="hardAlpha" operator="out"/>
<feColorMatrix type="matrix" values="0 0 0 0 0.0470588 0 0 0 0 0.0470588 0 0 0 0 0.0509804 0 0 0 0.1 0"/>
<feBlend mode="normal" in2="effect1_dropShadow_108_78845" result="effect2_dropShadow_108_78845"/>
<feBlend mode="normal" in="SourceGraphic" in2="effect2_dropShadow_108_78845" result="shape"/>
</filter>
<filter id="filter11_dd_108_78845" x="129.413" y="210.013" width="59.8737" height="124.487" filterUnits="userSpaceOnUse" color-interpolation-filters="sRGB">
<feFlood flood-opacity="0" result="BackgroundImageFix"/>
<feColorMatrix in="SourceAlpha" type="matrix" values="0 0 0 0 0 0 0 0 0 0 0 0 0 0 0 0 0 0 127 0" result="hardAlpha"/>
<feOffset dy="1"/>
<feGaussianBlur stdDeviation="2"/>
<feComposite in2="hardAlpha" operator="out"/>
<feColorMatrix type="matrix" values="0 0 0 0 0.0470588 0 0 0 0 0.0470588 0 0 0 0 0.0509804 0 0 0 0.05 0"/>
<feBlend mode="normal" in2="BackgroundImageFix" result="effect1_dropShadow_108_78845"/>
<feColorMatrix in="SourceAlpha" type="matrix" values="0 0 0 0 0 0 0 0 0 0 0 0 0 0 0 0 0 0 127 0" result="hardAlpha"/>
<feOffset dy="1"/>
<feGaussianBlur stdDeviation="2"/>
<feComposite in2="hardAlpha" operator="out"/>
<feColorMatrix type="matrix" values="0 0 0 0 0.0470588 0 0 0 0 0.0470588 0 0 0 0 0.0509804 0 0 0 0.1 0"/>
<feBlend mode="normal" in2="effect1_dropShadow_108_78845" result="effect2_dropShadow_108_78845"/>
<feBlend mode="normal" in="SourceGraphic" in2="effect2_dropShadow_108_78845" result="shape"/>
</filter>
<clipPath id="clip0_108_78845">
<rect width="293.7" height="329.5" fill="white"/>
</clipPath>
</defs>
</svg>
