<?xml version="1.0" encoding="UTF-8"?>
<svg id="Layer_2" data-name="Layer 2" xmlns="http://www.w3.org/2000/svg" viewBox="0 0 143.6 116">
  <defs>
    <style>
      .cls-1 {
        fill: #77a5ff;
        stroke: #578dfe;
        stroke-width: .8px;
      }

      .cls-1, .cls-2 {
        stroke-miterlimit: 10;
      }

      .cls-2 {
        fill: #eff4ff;
        stroke: #c6d2e5;
      }
    </style>
  </defs>
  <g id="Layer_1-2" data-name="Layer 1">
    <g>
      <rect class="cls-2" x="61.6" y=".5" width="20.4" height="115" rx="10.2" ry="10.2"/>
      <g>
        <path class="cls-1" d="M54.5,54.1l-20.1-11.6c-2.3-1.3-5.2.3-5.2,3v23.3c0,2.7,2.9,4.3,5.2,3l20.1-11.6c2.3-1.3,2.3-4.7,0-6l-20.1-11.6c-2.3-1.3-5.2.3-5.2,3v23.3c0,2.7,2.9,4.3,5.2,3l20.1-11.6c2.3-1.3,2.3-4.7,0-6Z"/>
        <path class="cls-1" d="M5.9,50.6h18.7c1,0,1.8.8,1.8,1.8v9.5c0,1-.8,1.8-1.8,1.8H5.9c-3,0-5.5-2.4-5.5-5.5v-2.1c0-3,2.4-5.5,5.5-5.5Z"/>
      </g>
      <g>
        <path class="cls-1" d="M89.1,60.1l20.1,11.6c2.3,1.3,5.2-.3,5.2-3v-23.3c0-2.7-2.9-4.3-5.2-3l-20.1,11.6c-2.3,1.3-2.3,4.7,0,6l20.1,11.6c2.3,1.3,5.2-.3,5.2-3v-23.3c0-2.7-2.9-4.3-5.2-3l-20.1,11.6c-2.3,1.3-2.3,4.7,0,6Z"/>
        <path class="cls-1" d="M122.7,50.6h18.7c1,0,1.8.8,1.8,1.8v9.5c0,1-.8,1.8-1.8,1.8h-18.7c-3,0-5.5-2.4-5.5-5.5v-2.1c0-3,2.4-5.5,5.5-5.5Z" transform="translate(260.5 114.1) rotate(180)"/>
      </g>
    </g>
  </g>
</svg>