<svg width="280" height="117" viewBox="0 0 280 117" fill="none" xmlns="http://www.w3.org/2000/svg">
<g clip-path="url(#clip0_112_78878)">
<g filter="url(#filter0_dd_112_78878)">
<path d="M74.8999 98.5996C74.8999 91.6961 69.3035 86.0996 62.3999 86.0996C55.4963 86.0996 49.8999 91.6961 49.8999 98.5996C49.8999 105.503 55.4963 111.1 62.3999 111.1C69.3035 111.1 74.8999 105.503 74.8999 98.5996Z" fill="#578DFE"/>
</g>
<g filter="url(#filter1_dd_112_78878)">
<path d="M169.9 86.0996H84.8999C82.1385 86.0996 79.8999 88.3382 79.8999 91.0996V106.1C79.8999 108.861 82.1385 111.1 84.8999 111.1H169.9C172.661 111.1 174.9 108.861 174.9 106.1V91.0996C174.9 88.3382 172.661 86.0996 169.9 86.0996Z" fill="#AEC7FF"/>
</g>
<g filter="url(#filter2_dd_112_78878)">
<path d="M172.2 95.3992C169.6 95.3992 167.1 94.3992 165.1 92.4992L137.9 65.2992C134 61.3992 134 55.0992 137.9 51.1992L165.1 23.9992C169 20.0992 175.3 20.0992 179.2 23.9992C183.1 27.8992 183.1 34.1992 179.2 38.0992L160.5 56.7992C159.7 57.5992 159.7 58.7992 160.5 59.5992L179 78.0992C182.7 81.7992 183.2 87.8992 179.7 91.8992C176.2 95.8992 174.9 95.3992 172.1 95.3992H172.2Z" fill="#AA9AFF"/>
</g>
<g filter="url(#filter3_dd_112_78878)">
<path d="M242.8 95.3992C240 95.3992 237.2 94.1992 235.2 91.8992C231.7 87.8992 232.2 81.7992 235.9 78.0992L254.4 59.5992C255.2 58.7992 255.2 57.5992 254.4 56.7992L235.7 38.0992C231.8 34.1992 231.8 27.8992 235.7 23.9992C239.6 20.0992 245.9 20.0992 249.8 23.9992L277 51.1992C280.9 55.0992 280.9 61.3992 277 65.2992L249.8 92.4992C247.8 94.4992 245.3 95.3992 242.7 95.3992H242.8Z" fill="#AA9AFF"/>
</g>
<g filter="url(#filter4_dd_112_78878)">
<path d="M191.6 116.5C190.6 116.5 189.5 116.3 188.5 116C183.3 114.3 180.4 108.6 182.1 103.4L213.9 6.89951C215.6 1.69951 221.3 -1.20049 226.5 0.499512C231.7 2.19951 234.6 7.89951 232.9 13.0995L201 109.6C199.6 113.8 195.7 116.5 191.5 116.5H191.6Z" fill="#DED5FF"/>
</g>
<g filter="url(#filter5_dd_112_78878)">
<path d="M74.8999 28.5996C74.8999 21.6961 69.3035 16.0996 62.3999 16.0996C55.4963 16.0996 49.8999 21.6961 49.8999 28.5996C49.8999 35.5032 55.4963 41.0996 62.3999 41.0996C69.3035 41.0996 74.8999 35.5032 74.8999 28.5996Z" fill="#578DFE"/>
</g>
<g filter="url(#filter6_dd_112_78878)">
<path d="M164.9 16.0996H84.8999C82.1385 16.0996 79.8999 18.3382 79.8999 21.0996V36.0996C79.8999 38.861 82.1385 41.0996 84.8999 41.0996H164.9C167.661 41.0996 169.9 38.861 169.9 36.0996V21.0996C169.9 18.3382 167.661 16.0996 164.9 16.0996Z" fill="#AEC7FF"/>
</g>
<g filter="url(#filter7_dd_112_78878)">
<path d="M45.1999 111.1C42.9999 111.1 40.7999 110.4 38.9999 109.1L4.59991 85.0997C-0.300091 81.6997 -1.50009 74.8997 1.89991 69.9997C5.29991 65.0997 12.0999 63.8997 16.9999 67.2997L40.8999 83.9997C41.7999 84.5997 43.0999 84.3997 43.6999 83.4997L87.6999 20.5997C91.0999 15.6997 97.8999 14.4997 102.8 17.8997C107.7 21.2997 108.9 28.0997 105.5 32.9997L54.0999 106.4C52.4999 108.8 49.8999 110.4 47.0999 110.8C46.4999 110.9 45.7999 111 45.1999 111V111.1Z" fill="#8CC63F"/>
</g>
<g filter="url(#filter8_dd_112_78878)">
<path d="M74.8999 63.5996C74.8999 56.6961 69.3035 51.0996 62.3999 51.0996C55.4963 51.0996 49.8999 56.6961 49.8999 63.5996C49.8999 70.5032 55.4963 76.0996 62.3999 76.0996C69.3035 76.0996 74.8999 70.5032 74.8999 63.5996Z" fill="#578DFE"/>
</g>
<g filter="url(#filter9_dd_112_78878)">
<path d="M149.9 51.0996H84.8999C82.1385 51.0996 79.8999 53.3382 79.8999 56.0996V71.0996C79.8999 73.861 82.1385 76.0996 84.8999 76.0996H149.9C152.661 76.0996 154.9 73.861 154.9 71.0996V56.0996C154.9 53.3382 152.661 51.0996 149.9 51.0996Z" fill="#AEC7FF"/>
</g>
</g>
<defs>
<filter id="filter0_dd_112_78878" x="45.8999" y="83.0996" width="33" height="33" filterUnits="userSpaceOnUse" color-interpolation-filters="sRGB">
<feFlood flood-opacity="0" result="BackgroundImageFix"/>
<feColorMatrix in="SourceAlpha" type="matrix" values="0 0 0 0 0 0 0 0 0 0 0 0 0 0 0 0 0 0 127 0" result="hardAlpha"/>
<feOffset dy="1"/>
<feGaussianBlur stdDeviation="2"/>
<feComposite in2="hardAlpha" operator="out"/>
<feColorMatrix type="matrix" values="0 0 0 0 0.0470588 0 0 0 0 0.0470588 0 0 0 0 0.0509804 0 0 0 0.05 0"/>
<feBlend mode="normal" in2="BackgroundImageFix" result="effect1_dropShadow_112_78878"/>
<feColorMatrix in="SourceAlpha" type="matrix" values="0 0 0 0 0 0 0 0 0 0 0 0 0 0 0 0 0 0 127 0" result="hardAlpha"/>
<feOffset dy="1"/>
<feGaussianBlur stdDeviation="2"/>
<feComposite in2="hardAlpha" operator="out"/>
<feColorMatrix type="matrix" values="0 0 0 0 0.0470588 0 0 0 0 0.0470588 0 0 0 0 0.0509804 0 0 0 0.1 0"/>
<feBlend mode="normal" in2="effect1_dropShadow_112_78878" result="effect2_dropShadow_112_78878"/>
<feBlend mode="normal" in="SourceGraphic" in2="effect2_dropShadow_112_78878" result="shape"/>
</filter>
<filter id="filter1_dd_112_78878" x="75.8999" y="83.0996" width="103" height="33" filterUnits="userSpaceOnUse" color-interpolation-filters="sRGB">
<feFlood flood-opacity="0" result="BackgroundImageFix"/>
<feColorMatrix in="SourceAlpha" type="matrix" values="0 0 0 0 0 0 0 0 0 0 0 0 0 0 0 0 0 0 127 0" result="hardAlpha"/>
<feOffset dy="1"/>
<feGaussianBlur stdDeviation="2"/>
<feComposite in2="hardAlpha" operator="out"/>
<feColorMatrix type="matrix" values="0 0 0 0 0.0470588 0 0 0 0 0.0470588 0 0 0 0 0.0509804 0 0 0 0.05 0"/>
<feBlend mode="normal" in2="BackgroundImageFix" result="effect1_dropShadow_112_78878"/>
<feColorMatrix in="SourceAlpha" type="matrix" values="0 0 0 0 0 0 0 0 0 0 0 0 0 0 0 0 0 0 127 0" result="hardAlpha"/>
<feOffset dy="1"/>
<feGaussianBlur stdDeviation="2"/>
<feComposite in2="hardAlpha" operator="out"/>
<feColorMatrix type="matrix" values="0 0 0 0 0.0470588 0 0 0 0 0.0470588 0 0 0 0 0.0509804 0 0 0 0.1 0"/>
<feBlend mode="normal" in2="effect1_dropShadow_112_78878" result="effect2_dropShadow_112_78878"/>
<feBlend mode="normal" in="SourceGraphic" in2="effect2_dropShadow_112_78878" result="shape"/>
</filter>
<filter id="filter2_dd_112_78878" x="130.975" y="18.0742" width="55.1499" height="82.3447" filterUnits="userSpaceOnUse" color-interpolation-filters="sRGB">
<feFlood flood-opacity="0" result="BackgroundImageFix"/>
<feColorMatrix in="SourceAlpha" type="matrix" values="0 0 0 0 0 0 0 0 0 0 0 0 0 0 0 0 0 0 127 0" result="hardAlpha"/>
<feOffset dy="1"/>
<feGaussianBlur stdDeviation="2"/>
<feComposite in2="hardAlpha" operator="out"/>
<feColorMatrix type="matrix" values="0 0 0 0 0.0470588 0 0 0 0 0.0470588 0 0 0 0 0.0509804 0 0 0 0.05 0"/>
<feBlend mode="normal" in2="BackgroundImageFix" result="effect1_dropShadow_112_78878"/>
<feColorMatrix in="SourceAlpha" type="matrix" values="0 0 0 0 0 0 0 0 0 0 0 0 0 0 0 0 0 0 127 0" result="hardAlpha"/>
<feOffset dy="1"/>
<feGaussianBlur stdDeviation="2"/>
<feComposite in2="hardAlpha" operator="out"/>
<feColorMatrix type="matrix" values="0 0 0 0 0.0470588 0 0 0 0 0.0470588 0 0 0 0 0.0509804 0 0 0 0.1 0"/>
<feBlend mode="normal" in2="effect1_dropShadow_112_78878" result="effect2_dropShadow_112_78878"/>
<feBlend mode="normal" in="SourceGraphic" in2="effect2_dropShadow_112_78878" result="shape"/>
</filter>
<filter id="filter3_dd_112_78878" x="228.775" y="18.0742" width="55.15" height="82.3252" filterUnits="userSpaceOnUse" color-interpolation-filters="sRGB">
<feFlood flood-opacity="0" result="BackgroundImageFix"/>
<feColorMatrix in="SourceAlpha" type="matrix" values="0 0 0 0 0 0 0 0 0 0 0 0 0 0 0 0 0 0 127 0" result="hardAlpha"/>
<feOffset dy="1"/>
<feGaussianBlur stdDeviation="2"/>
<feComposite in2="hardAlpha" operator="out"/>
<feColorMatrix type="matrix" values="0 0 0 0 0.0470588 0 0 0 0 0.0470588 0 0 0 0 0.0509804 0 0 0 0.05 0"/>
<feBlend mode="normal" in2="BackgroundImageFix" result="effect1_dropShadow_112_78878"/>
<feColorMatrix in="SourceAlpha" type="matrix" values="0 0 0 0 0 0 0 0 0 0 0 0 0 0 0 0 0 0 127 0" result="hardAlpha"/>
<feOffset dy="1"/>
<feGaussianBlur stdDeviation="2"/>
<feComposite in2="hardAlpha" operator="out"/>
<feColorMatrix type="matrix" values="0 0 0 0 0.0470588 0 0 0 0 0.0470588 0 0 0 0 0.0509804 0 0 0 0.1 0"/>
<feBlend mode="normal" in2="effect1_dropShadow_112_78878" result="effect2_dropShadow_112_78878"/>
<feBlend mode="normal" in="SourceGraphic" in2="effect2_dropShadow_112_78878" result="shape"/>
</filter>
<filter id="filter4_dd_112_78878" x="177.613" y="-2.9873" width="59.7737" height="124.487" filterUnits="userSpaceOnUse" color-interpolation-filters="sRGB">
<feFlood flood-opacity="0" result="BackgroundImageFix"/>
<feColorMatrix in="SourceAlpha" type="matrix" values="0 0 0 0 0 0 0 0 0 0 0 0 0 0 0 0 0 0 127 0" result="hardAlpha"/>
<feOffset dy="1"/>
<feGaussianBlur stdDeviation="2"/>
<feComposite in2="hardAlpha" operator="out"/>
<feColorMatrix type="matrix" values="0 0 0 0 0.0470588 0 0 0 0 0.0470588 0 0 0 0 0.0509804 0 0 0 0.05 0"/>
<feBlend mode="normal" in2="BackgroundImageFix" result="effect1_dropShadow_112_78878"/>
<feColorMatrix in="SourceAlpha" type="matrix" values="0 0 0 0 0 0 0 0 0 0 0 0 0 0 0 0 0 0 127 0" result="hardAlpha"/>
<feOffset dy="1"/>
<feGaussianBlur stdDeviation="2"/>
<feComposite in2="hardAlpha" operator="out"/>
<feColorMatrix type="matrix" values="0 0 0 0 0.0470588 0 0 0 0 0.0470588 0 0 0 0 0.0509804 0 0 0 0.1 0"/>
<feBlend mode="normal" in2="effect1_dropShadow_112_78878" result="effect2_dropShadow_112_78878"/>
<feBlend mode="normal" in="SourceGraphic" in2="effect2_dropShadow_112_78878" result="shape"/>
</filter>
<filter id="filter5_dd_112_78878" x="45.8999" y="13.0996" width="33" height="33" filterUnits="userSpaceOnUse" color-interpolation-filters="sRGB">
<feFlood flood-opacity="0" result="BackgroundImageFix"/>
<feColorMatrix in="SourceAlpha" type="matrix" values="0 0 0 0 0 0 0 0 0 0 0 0 0 0 0 0 0 0 127 0" result="hardAlpha"/>
<feOffset dy="1"/>
<feGaussianBlur stdDeviation="2"/>
<feComposite in2="hardAlpha" operator="out"/>
<feColorMatrix type="matrix" values="0 0 0 0 0.0470588 0 0 0 0 0.0470588 0 0 0 0 0.0509804 0 0 0 0.05 0"/>
<feBlend mode="normal" in2="BackgroundImageFix" result="effect1_dropShadow_112_78878"/>
<feColorMatrix in="SourceAlpha" type="matrix" values="0 0 0 0 0 0 0 0 0 0 0 0 0 0 0 0 0 0 127 0" result="hardAlpha"/>
<feOffset dy="1"/>
<feGaussianBlur stdDeviation="2"/>
<feComposite in2="hardAlpha" operator="out"/>
<feColorMatrix type="matrix" values="0 0 0 0 0.0470588 0 0 0 0 0.0470588 0 0 0 0 0.0509804 0 0 0 0.1 0"/>
<feBlend mode="normal" in2="effect1_dropShadow_112_78878" result="effect2_dropShadow_112_78878"/>
<feBlend mode="normal" in="SourceGraphic" in2="effect2_dropShadow_112_78878" result="shape"/>
</filter>
<filter id="filter6_dd_112_78878" x="75.8999" y="13.0996" width="98" height="33" filterUnits="userSpaceOnUse" color-interpolation-filters="sRGB">
<feFlood flood-opacity="0" result="BackgroundImageFix"/>
<feColorMatrix in="SourceAlpha" type="matrix" values="0 0 0 0 0 0 0 0 0 0 0 0 0 0 0 0 0 0 127 0" result="hardAlpha"/>
<feOffset dy="1"/>
<feGaussianBlur stdDeviation="2"/>
<feComposite in2="hardAlpha" operator="out"/>
<feColorMatrix type="matrix" values="0 0 0 0 0.0470588 0 0 0 0 0.0470588 0 0 0 0 0.0509804 0 0 0 0.05 0"/>
<feBlend mode="normal" in2="BackgroundImageFix" result="effect1_dropShadow_112_78878"/>
<feColorMatrix in="SourceAlpha" type="matrix" values="0 0 0 0 0 0 0 0 0 0 0 0 0 0 0 0 0 0 127 0" result="hardAlpha"/>
<feOffset dy="1"/>
<feGaussianBlur stdDeviation="2"/>
<feComposite in2="hardAlpha" operator="out"/>
<feColorMatrix type="matrix" values="0 0 0 0 0.0470588 0 0 0 0 0.0470588 0 0 0 0 0.0509804 0 0 0 0.1 0"/>
<feBlend mode="normal" in2="effect1_dropShadow_112_78878" result="effect2_dropShadow_112_78878"/>
<feBlend mode="normal" in="SourceGraphic" in2="effect2_dropShadow_112_78878" result="shape"/>
</filter>
<filter id="filter7_dd_112_78878" x="-4.03296" y="12.9668" width="115.466" height="103.133" filterUnits="userSpaceOnUse" color-interpolation-filters="sRGB">
<feFlood flood-opacity="0" result="BackgroundImageFix"/>
<feColorMatrix in="SourceAlpha" type="matrix" values="0 0 0 0 0 0 0 0 0 0 0 0 0 0 0 0 0 0 127 0" result="hardAlpha"/>
<feOffset dy="1"/>
<feGaussianBlur stdDeviation="2"/>
<feComposite in2="hardAlpha" operator="out"/>
<feColorMatrix type="matrix" values="0 0 0 0 0.0470588 0 0 0 0 0.0470588 0 0 0 0 0.0509804 0 0 0 0.05 0"/>
<feBlend mode="normal" in2="BackgroundImageFix" result="effect1_dropShadow_112_78878"/>
<feColorMatrix in="SourceAlpha" type="matrix" values="0 0 0 0 0 0 0 0 0 0 0 0 0 0 0 0 0 0 127 0" result="hardAlpha"/>
<feOffset dy="1"/>
<feGaussianBlur stdDeviation="2"/>
<feComposite in2="hardAlpha" operator="out"/>
<feColorMatrix type="matrix" values="0 0 0 0 0.0470588 0 0 0 0 0.0470588 0 0 0 0 0.0509804 0 0 0 0.1 0"/>
<feBlend mode="normal" in2="effect1_dropShadow_112_78878" result="effect2_dropShadow_112_78878"/>
<feBlend mode="normal" in="SourceGraphic" in2="effect2_dropShadow_112_78878" result="shape"/>
</filter>
<filter id="filter8_dd_112_78878" x="45.8999" y="48.0996" width="33" height="33" filterUnits="userSpaceOnUse" color-interpolation-filters="sRGB">
<feFlood flood-opacity="0" result="BackgroundImageFix"/>
<feColorMatrix in="SourceAlpha" type="matrix" values="0 0 0 0 0 0 0 0 0 0 0 0 0 0 0 0 0 0 127 0" result="hardAlpha"/>
<feOffset dy="1"/>
<feGaussianBlur stdDeviation="2"/>
<feComposite in2="hardAlpha" operator="out"/>
<feColorMatrix type="matrix" values="0 0 0 0 0.0470588 0 0 0 0 0.0470588 0 0 0 0 0.0509804 0 0 0 0.05 0"/>
<feBlend mode="normal" in2="BackgroundImageFix" result="effect1_dropShadow_112_78878"/>
<feColorMatrix in="SourceAlpha" type="matrix" values="0 0 0 0 0 0 0 0 0 0 0 0 0 0 0 0 0 0 127 0" result="hardAlpha"/>
<feOffset dy="1"/>
<feGaussianBlur stdDeviation="2"/>
<feComposite in2="hardAlpha" operator="out"/>
<feColorMatrix type="matrix" values="0 0 0 0 0.0470588 0 0 0 0 0.0470588 0 0 0 0 0.0509804 0 0 0 0.1 0"/>
<feBlend mode="normal" in2="effect1_dropShadow_112_78878" result="effect2_dropShadow_112_78878"/>
<feBlend mode="normal" in="SourceGraphic" in2="effect2_dropShadow_112_78878" result="shape"/>
</filter>
<filter id="filter9_dd_112_78878" x="75.8999" y="48.0996" width="83" height="33" filterUnits="userSpaceOnUse" color-interpolation-filters="sRGB">
<feFlood flood-opacity="0" result="BackgroundImageFix"/>
<feColorMatrix in="SourceAlpha" type="matrix" values="0 0 0 0 0 0 0 0 0 0 0 0 0 0 0 0 0 0 127 0" result="hardAlpha"/>
<feOffset dy="1"/>
<feGaussianBlur stdDeviation="2"/>
<feComposite in2="hardAlpha" operator="out"/>
<feColorMatrix type="matrix" values="0 0 0 0 0.0470588 0 0 0 0 0.0470588 0 0 0 0 0.0509804 0 0 0 0.05 0"/>
<feBlend mode="normal" in2="BackgroundImageFix" result="effect1_dropShadow_112_78878"/>
<feColorMatrix in="SourceAlpha" type="matrix" values="0 0 0 0 0 0 0 0 0 0 0 0 0 0 0 0 0 0 127 0" result="hardAlpha"/>
<feOffset dy="1"/>
<feGaussianBlur stdDeviation="2"/>
<feComposite in2="hardAlpha" operator="out"/>
<feColorMatrix type="matrix" values="0 0 0 0 0.0470588 0 0 0 0 0.0470588 0 0 0 0 0.0509804 0 0 0 0.1 0"/>
<feBlend mode="normal" in2="effect1_dropShadow_112_78878" result="effect2_dropShadow_112_78878"/>
<feBlend mode="normal" in="SourceGraphic" in2="effect2_dropShadow_112_78878" result="shape"/>
</filter>
<clipPath id="clip0_112_78878">
<rect width="280" height="116.5" fill="white"/>
</clipPath>
</defs>
</svg>
