<svg width="185" height="136" viewBox="0 0 185 136" fill="none" xmlns="http://www.w3.org/2000/svg">
<g clip-path="url(#clip0_111_78865)">
<g filter="url(#filter0_dd_111_78865)">
<path d="M60 92.5C60 85.5964 54.4036 80 47.5 80C40.5964 80 35 85.5964 35 92.5C35 99.4036 40.5964 105 47.5 105C54.4036 105 60 99.4036 60 92.5Z" fill="#578DFE"/>
</g>
<g filter="url(#filter1_dd_111_78865)">
<path d="M155 80H70C67.2386 80 65 82.2386 65 85V100C65 102.761 67.2386 105 70 105H155C157.761 105 160 102.761 160 100V85C160 82.2386 157.761 80 155 80Z" fill="#AEC7FF"/>
</g>
<g filter="url(#filter2_dd_111_78865)">
<path d="M105 60V110C105 112.8 107.2 115 110 115H161C161.1 115.3 161.3 115.7 161.6 115.9L180.1 134.4C181.9 136.2 185 134.9 185 132.4V60C185 57.2 182.8 55 180 55H110C107.2 55 105 57.2 105 60Z" fill="#DED5FF"/>
</g>
<g filter="url(#filter3_dd_111_78865)">
<path d="M60 57.5C60 50.5964 54.4036 45 47.5 45C40.5964 45 35 50.5964 35 57.5C35 64.4036 40.5964 70 47.5 70C54.4036 70 60 64.4036 60 57.5Z" fill="#578DFE"/>
</g>
<g filter="url(#filter4_dd_111_78865)">
<path d="M135 45H70C67.2386 45 65 47.2386 65 50V65C65 67.7614 67.2386 70 70 70H135C137.761 70 140 67.7614 140 65V50C140 47.2386 137.761 45 135 45Z" fill="#AEC7FF"/>
</g>
<g filter="url(#filter5_dd_111_78865)">
<path d="M80 5V55C80 57.8 77.8 60 75 60H24C23.9 60.3 23.7 60.7 23.4 60.9L4.9 79.4C3.1 81.2 0 79.9 0 77.4V5C0 2.2 2.2 0 5 0H75C77.8 0 80 2.2 80 5Z" fill="#AA9AFF"/>
</g>
<g filter="url(#filter6_dd_111_78865)">
<path d="M60 22.5C60 15.5964 54.4036 10 47.5 10C40.5964 10 35 15.5964 35 22.5C35 29.4036 40.5964 35 47.5 35C54.4036 35 60 29.4036 60 22.5Z" fill="#578DFE"/>
</g>
<g filter="url(#filter7_dd_111_78865)">
<path d="M150 10H70C67.2386 10 65 12.2386 65 15V30C65 32.7614 67.2386 35 70 35H150C152.761 35 155 32.7614 155 30V15C155 12.2386 152.761 10 150 10Z" fill="#AEC7FF"/>
</g>
</g>
<defs>
<filter id="filter0_dd_111_78865" x="31" y="77" width="33" height="33" filterUnits="userSpaceOnUse" color-interpolation-filters="sRGB">
<feFlood flood-opacity="0" result="BackgroundImageFix"/>
<feColorMatrix in="SourceAlpha" type="matrix" values="0 0 0 0 0 0 0 0 0 0 0 0 0 0 0 0 0 0 127 0" result="hardAlpha"/>
<feOffset dy="1"/>
<feGaussianBlur stdDeviation="2"/>
<feComposite in2="hardAlpha" operator="out"/>
<feColorMatrix type="matrix" values="0 0 0 0 0.0470588 0 0 0 0 0.0470588 0 0 0 0 0.0509804 0 0 0 0.05 0"/>
<feBlend mode="normal" in2="BackgroundImageFix" result="effect1_dropShadow_111_78865"/>
<feColorMatrix in="SourceAlpha" type="matrix" values="0 0 0 0 0 0 0 0 0 0 0 0 0 0 0 0 0 0 127 0" result="hardAlpha"/>
<feOffset dy="1"/>
<feGaussianBlur stdDeviation="2"/>
<feComposite in2="hardAlpha" operator="out"/>
<feColorMatrix type="matrix" values="0 0 0 0 0.0470588 0 0 0 0 0.0470588 0 0 0 0 0.0509804 0 0 0 0.1 0"/>
<feBlend mode="normal" in2="effect1_dropShadow_111_78865" result="effect2_dropShadow_111_78865"/>
<feBlend mode="normal" in="SourceGraphic" in2="effect2_dropShadow_111_78865" result="shape"/>
</filter>
<filter id="filter1_dd_111_78865" x="61" y="77" width="103" height="33" filterUnits="userSpaceOnUse" color-interpolation-filters="sRGB">
<feFlood flood-opacity="0" result="BackgroundImageFix"/>
<feColorMatrix in="SourceAlpha" type="matrix" values="0 0 0 0 0 0 0 0 0 0 0 0 0 0 0 0 0 0 127 0" result="hardAlpha"/>
<feOffset dy="1"/>
<feGaussianBlur stdDeviation="2"/>
<feComposite in2="hardAlpha" operator="out"/>
<feColorMatrix type="matrix" values="0 0 0 0 0.0470588 0 0 0 0 0.0470588 0 0 0 0 0.0509804 0 0 0 0.05 0"/>
<feBlend mode="normal" in2="BackgroundImageFix" result="effect1_dropShadow_111_78865"/>
<feColorMatrix in="SourceAlpha" type="matrix" values="0 0 0 0 0 0 0 0 0 0 0 0 0 0 0 0 0 0 127 0" result="hardAlpha"/>
<feOffset dy="1"/>
<feGaussianBlur stdDeviation="2"/>
<feComposite in2="hardAlpha" operator="out"/>
<feColorMatrix type="matrix" values="0 0 0 0 0.0470588 0 0 0 0 0.0470588 0 0 0 0 0.0509804 0 0 0 0.1 0"/>
<feBlend mode="normal" in2="effect1_dropShadow_111_78865" result="effect2_dropShadow_111_78865"/>
<feBlend mode="normal" in="SourceGraphic" in2="effect2_dropShadow_111_78865" result="shape"/>
</filter>
<filter id="filter2_dd_111_78865" x="101" y="52" width="88" height="88.2383" filterUnits="userSpaceOnUse" color-interpolation-filters="sRGB">
<feFlood flood-opacity="0" result="BackgroundImageFix"/>
<feColorMatrix in="SourceAlpha" type="matrix" values="0 0 0 0 0 0 0 0 0 0 0 0 0 0 0 0 0 0 127 0" result="hardAlpha"/>
<feOffset dy="1"/>
<feGaussianBlur stdDeviation="2"/>
<feComposite in2="hardAlpha" operator="out"/>
<feColorMatrix type="matrix" values="0 0 0 0 0.0470588 0 0 0 0 0.0470588 0 0 0 0 0.0509804 0 0 0 0.05 0"/>
<feBlend mode="normal" in2="BackgroundImageFix" result="effect1_dropShadow_111_78865"/>
<feColorMatrix in="SourceAlpha" type="matrix" values="0 0 0 0 0 0 0 0 0 0 0 0 0 0 0 0 0 0 127 0" result="hardAlpha"/>
<feOffset dy="1"/>
<feGaussianBlur stdDeviation="2"/>
<feComposite in2="hardAlpha" operator="out"/>
<feColorMatrix type="matrix" values="0 0 0 0 0.0470588 0 0 0 0 0.0470588 0 0 0 0 0.0509804 0 0 0 0.1 0"/>
<feBlend mode="normal" in2="effect1_dropShadow_111_78865" result="effect2_dropShadow_111_78865"/>
<feBlend mode="normal" in="SourceGraphic" in2="effect2_dropShadow_111_78865" result="shape"/>
</filter>
<filter id="filter3_dd_111_78865" x="31" y="42" width="33" height="33" filterUnits="userSpaceOnUse" color-interpolation-filters="sRGB">
<feFlood flood-opacity="0" result="BackgroundImageFix"/>
<feColorMatrix in="SourceAlpha" type="matrix" values="0 0 0 0 0 0 0 0 0 0 0 0 0 0 0 0 0 0 127 0" result="hardAlpha"/>
<feOffset dy="1"/>
<feGaussianBlur stdDeviation="2"/>
<feComposite in2="hardAlpha" operator="out"/>
<feColorMatrix type="matrix" values="0 0 0 0 0.0470588 0 0 0 0 0.0470588 0 0 0 0 0.0509804 0 0 0 0.05 0"/>
<feBlend mode="normal" in2="BackgroundImageFix" result="effect1_dropShadow_111_78865"/>
<feColorMatrix in="SourceAlpha" type="matrix" values="0 0 0 0 0 0 0 0 0 0 0 0 0 0 0 0 0 0 127 0" result="hardAlpha"/>
<feOffset dy="1"/>
<feGaussianBlur stdDeviation="2"/>
<feComposite in2="hardAlpha" operator="out"/>
<feColorMatrix type="matrix" values="0 0 0 0 0.0470588 0 0 0 0 0.0470588 0 0 0 0 0.0509804 0 0 0 0.1 0"/>
<feBlend mode="normal" in2="effect1_dropShadow_111_78865" result="effect2_dropShadow_111_78865"/>
<feBlend mode="normal" in="SourceGraphic" in2="effect2_dropShadow_111_78865" result="shape"/>
</filter>
<filter id="filter4_dd_111_78865" x="61" y="42" width="83" height="33" filterUnits="userSpaceOnUse" color-interpolation-filters="sRGB">
<feFlood flood-opacity="0" result="BackgroundImageFix"/>
<feColorMatrix in="SourceAlpha" type="matrix" values="0 0 0 0 0 0 0 0 0 0 0 0 0 0 0 0 0 0 127 0" result="hardAlpha"/>
<feOffset dy="1"/>
<feGaussianBlur stdDeviation="2"/>
<feComposite in2="hardAlpha" operator="out"/>
<feColorMatrix type="matrix" values="0 0 0 0 0.0470588 0 0 0 0 0.0470588 0 0 0 0 0.0509804 0 0 0 0.05 0"/>
<feBlend mode="normal" in2="BackgroundImageFix" result="effect1_dropShadow_111_78865"/>
<feColorMatrix in="SourceAlpha" type="matrix" values="0 0 0 0 0 0 0 0 0 0 0 0 0 0 0 0 0 0 127 0" result="hardAlpha"/>
<feOffset dy="1"/>
<feGaussianBlur stdDeviation="2"/>
<feComposite in2="hardAlpha" operator="out"/>
<feColorMatrix type="matrix" values="0 0 0 0 0.0470588 0 0 0 0 0.0470588 0 0 0 0 0.0509804 0 0 0 0.1 0"/>
<feBlend mode="normal" in2="effect1_dropShadow_111_78865" result="effect2_dropShadow_111_78865"/>
<feBlend mode="normal" in="SourceGraphic" in2="effect2_dropShadow_111_78865" result="shape"/>
</filter>
<filter id="filter5_dd_111_78865" x="-4" y="-3" width="88" height="88.2383" filterUnits="userSpaceOnUse" color-interpolation-filters="sRGB">
<feFlood flood-opacity="0" result="BackgroundImageFix"/>
<feColorMatrix in="SourceAlpha" type="matrix" values="0 0 0 0 0 0 0 0 0 0 0 0 0 0 0 0 0 0 127 0" result="hardAlpha"/>
<feOffset dy="1"/>
<feGaussianBlur stdDeviation="2"/>
<feComposite in2="hardAlpha" operator="out"/>
<feColorMatrix type="matrix" values="0 0 0 0 0.0470588 0 0 0 0 0.0470588 0 0 0 0 0.0509804 0 0 0 0.05 0"/>
<feBlend mode="normal" in2="BackgroundImageFix" result="effect1_dropShadow_111_78865"/>
<feColorMatrix in="SourceAlpha" type="matrix" values="0 0 0 0 0 0 0 0 0 0 0 0 0 0 0 0 0 0 127 0" result="hardAlpha"/>
<feOffset dy="1"/>
<feGaussianBlur stdDeviation="2"/>
<feComposite in2="hardAlpha" operator="out"/>
<feColorMatrix type="matrix" values="0 0 0 0 0.0470588 0 0 0 0 0.0470588 0 0 0 0 0.0509804 0 0 0 0.1 0"/>
<feBlend mode="normal" in2="effect1_dropShadow_111_78865" result="effect2_dropShadow_111_78865"/>
<feBlend mode="normal" in="SourceGraphic" in2="effect2_dropShadow_111_78865" result="shape"/>
</filter>
<filter id="filter6_dd_111_78865" x="31" y="7" width="33" height="33" filterUnits="userSpaceOnUse" color-interpolation-filters="sRGB">
<feFlood flood-opacity="0" result="BackgroundImageFix"/>
<feColorMatrix in="SourceAlpha" type="matrix" values="0 0 0 0 0 0 0 0 0 0 0 0 0 0 0 0 0 0 127 0" result="hardAlpha"/>
<feOffset dy="1"/>
<feGaussianBlur stdDeviation="2"/>
<feComposite in2="hardAlpha" operator="out"/>
<feColorMatrix type="matrix" values="0 0 0 0 0.0470588 0 0 0 0 0.0470588 0 0 0 0 0.0509804 0 0 0 0.05 0"/>
<feBlend mode="normal" in2="BackgroundImageFix" result="effect1_dropShadow_111_78865"/>
<feColorMatrix in="SourceAlpha" type="matrix" values="0 0 0 0 0 0 0 0 0 0 0 0 0 0 0 0 0 0 127 0" result="hardAlpha"/>
<feOffset dy="1"/>
<feGaussianBlur stdDeviation="2"/>
<feComposite in2="hardAlpha" operator="out"/>
<feColorMatrix type="matrix" values="0 0 0 0 0.0470588 0 0 0 0 0.0470588 0 0 0 0 0.0509804 0 0 0 0.1 0"/>
<feBlend mode="normal" in2="effect1_dropShadow_111_78865" result="effect2_dropShadow_111_78865"/>
<feBlend mode="normal" in="SourceGraphic" in2="effect2_dropShadow_111_78865" result="shape"/>
</filter>
<filter id="filter7_dd_111_78865" x="61" y="7" width="98" height="33" filterUnits="userSpaceOnUse" color-interpolation-filters="sRGB">
<feFlood flood-opacity="0" result="BackgroundImageFix"/>
<feColorMatrix in="SourceAlpha" type="matrix" values="0 0 0 0 0 0 0 0 0 0 0 0 0 0 0 0 0 0 127 0" result="hardAlpha"/>
<feOffset dy="1"/>
<feGaussianBlur stdDeviation="2"/>
<feComposite in2="hardAlpha" operator="out"/>
<feColorMatrix type="matrix" values="0 0 0 0 0.0470588 0 0 0 0 0.0470588 0 0 0 0 0.0509804 0 0 0 0.05 0"/>
<feBlend mode="normal" in2="BackgroundImageFix" result="effect1_dropShadow_111_78865"/>
<feColorMatrix in="SourceAlpha" type="matrix" values="0 0 0 0 0 0 0 0 0 0 0 0 0 0 0 0 0 0 127 0" result="hardAlpha"/>
<feOffset dy="1"/>
<feGaussianBlur stdDeviation="2"/>
<feComposite in2="hardAlpha" operator="out"/>
<feColorMatrix type="matrix" values="0 0 0 0 0.0470588 0 0 0 0 0.0470588 0 0 0 0 0.0509804 0 0 0 0.1 0"/>
<feBlend mode="normal" in2="effect1_dropShadow_111_78865" result="effect2_dropShadow_111_78865"/>
<feBlend mode="normal" in="SourceGraphic" in2="effect2_dropShadow_111_78865" result="shape"/>
</filter>
<clipPath id="clip0_111_78865">
<rect width="185" height="135.3" fill="white"/>
</clipPath>
</defs>
</svg>
