<svg width="152" height="123" viewBox="0 0 152 123" fill="none" xmlns="http://www.w3.org/2000/svg">
<g filter="url(#filter0_dd_92_78854)">
<path d="M86.4 13.2C86.4 7.5667 81.8333 3 76.2 3C70.5667 3 66 7.5667 66 13.2V107.8C66 113.433 70.5667 118 76.2 118C81.8333 118 86.4 113.433 86.4 107.8V13.2Z" fill="#AEC7FF"/>
</g>
<g filter="url(#filter1_dd_92_78854)">
<path d="M58.6 56.5998L38.5 44.9998C36.2 43.6998 33.3 45.2998 33.3 47.9998V71.2998C33.3 73.9998 36.2 75.5998 38.5 74.2998L58.6 62.6998C60.9 61.3998 60.9 57.9998 58.6 56.6998L38.5 45.0998C36.2 43.7998 33.3 45.3998 33.3 48.0998V71.3998C33.3 74.0998 36.2 75.6998 38.5 74.3998L58.6 62.7998C60.9 61.4998 60.9 58.0998 58.6 56.7998V56.5998Z" fill="#578DFE"/>
</g>
<g filter="url(#filter2_dd_92_78854)">
<path d="M10 53.0996H28.7C29.7 53.0996 30.5 53.8996 30.5 54.8996V64.3996C30.5 65.3996 29.7 66.1996 28.7 66.1996H10C7 66.1996 4.5 63.7996 4.5 60.6996V58.5996C4.5 55.5996 6.9 53.0996 10 53.0996Z" fill="#578DFE"/>
</g>
<g filter="url(#filter3_dd_92_78854)">
<path d="M93.2 62.5996L113.3 74.1996C115.6 75.4996 118.5 73.8996 118.5 71.1996V47.8997C118.5 45.1997 115.6 43.5997 113.3 44.8997L93.2 56.4996C90.9 57.7996 90.9 61.1996 93.2 62.4996L113.3 74.0996C115.6 75.3996 118.5 73.7996 118.5 71.0996V47.7996C118.5 45.0996 115.6 43.4996 113.3 44.7996L93.2 56.3997C90.9 57.6997 90.9 61.0997 93.2 62.3997V62.5996Z" fill="#578DFE"/>
</g>
<g filter="url(#filter4_dd_92_78854)">
<path d="M141.9 66H123.2C122.2 66 121.4 65.2 121.4 64.2V54.7C121.4 53.7 122.2 52.9 123.2 52.9H141.9C144.9 52.9 147.4 55.3 147.4 58.4V60.5C147.4 63.5 145 66 141.9 66Z" fill="#578DFE"/>
</g>
<defs>
<filter id="filter0_dd_92_78854" x="62" y="0" width="28.4" height="123" filterUnits="userSpaceOnUse" color-interpolation-filters="sRGB">
<feFlood flood-opacity="0" result="BackgroundImageFix"/>
<feColorMatrix in="SourceAlpha" type="matrix" values="0 0 0 0 0 0 0 0 0 0 0 0 0 0 0 0 0 0 127 0" result="hardAlpha"/>
<feOffset dy="1"/>
<feGaussianBlur stdDeviation="2"/>
<feComposite in2="hardAlpha" operator="out"/>
<feColorMatrix type="matrix" values="0 0 0 0 0.0470588 0 0 0 0 0.0470588 0 0 0 0 0.0509804 0 0 0 0.05 0"/>
<feBlend mode="normal" in2="BackgroundImageFix" result="effect1_dropShadow_92_78854"/>
<feColorMatrix in="SourceAlpha" type="matrix" values="0 0 0 0 0 0 0 0 0 0 0 0 0 0 0 0 0 0 127 0" result="hardAlpha"/>
<feOffset dy="1"/>
<feGaussianBlur stdDeviation="2"/>
<feComposite in2="hardAlpha" operator="out"/>
<feColorMatrix type="matrix" values="0 0 0 0 0.0470588 0 0 0 0 0.0470588 0 0 0 0 0.0509804 0 0 0 0.1 0"/>
<feBlend mode="normal" in2="effect1_dropShadow_92_78854" result="effect2_dropShadow_92_78854"/>
<feBlend mode="normal" in="SourceGraphic" in2="effect2_dropShadow_92_78854" result="shape"/>
</filter>
<filter id="filter1_dd_92_78854" x="29.3" y="41.54" width="35.025" height="38.3193" filterUnits="userSpaceOnUse" color-interpolation-filters="sRGB">
<feFlood flood-opacity="0" result="BackgroundImageFix"/>
<feColorMatrix in="SourceAlpha" type="matrix" values="0 0 0 0 0 0 0 0 0 0 0 0 0 0 0 0 0 0 127 0" result="hardAlpha"/>
<feOffset dy="1"/>
<feGaussianBlur stdDeviation="2"/>
<feComposite in2="hardAlpha" operator="out"/>
<feColorMatrix type="matrix" values="0 0 0 0 0.0470588 0 0 0 0 0.0470588 0 0 0 0 0.0509804 0 0 0 0.05 0"/>
<feBlend mode="normal" in2="BackgroundImageFix" result="effect1_dropShadow_92_78854"/>
<feColorMatrix in="SourceAlpha" type="matrix" values="0 0 0 0 0 0 0 0 0 0 0 0 0 0 0 0 0 0 127 0" result="hardAlpha"/>
<feOffset dy="1"/>
<feGaussianBlur stdDeviation="2"/>
<feComposite in2="hardAlpha" operator="out"/>
<feColorMatrix type="matrix" values="0 0 0 0 0.0470588 0 0 0 0 0.0470588 0 0 0 0 0.0509804 0 0 0 0.1 0"/>
<feBlend mode="normal" in2="effect1_dropShadow_92_78854" result="effect2_dropShadow_92_78854"/>
<feBlend mode="normal" in="SourceGraphic" in2="effect2_dropShadow_92_78854" result="shape"/>
</filter>
<filter id="filter2_dd_92_78854" x="0.5" y="50.0996" width="34" height="21.0996" filterUnits="userSpaceOnUse" color-interpolation-filters="sRGB">
<feFlood flood-opacity="0" result="BackgroundImageFix"/>
<feColorMatrix in="SourceAlpha" type="matrix" values="0 0 0 0 0 0 0 0 0 0 0 0 0 0 0 0 0 0 127 0" result="hardAlpha"/>
<feOffset dy="1"/>
<feGaussianBlur stdDeviation="2"/>
<feComposite in2="hardAlpha" operator="out"/>
<feColorMatrix type="matrix" values="0 0 0 0 0.0470588 0 0 0 0 0.0470588 0 0 0 0 0.0509804 0 0 0 0.05 0"/>
<feBlend mode="normal" in2="BackgroundImageFix" result="effect1_dropShadow_92_78854"/>
<feColorMatrix in="SourceAlpha" type="matrix" values="0 0 0 0 0 0 0 0 0 0 0 0 0 0 0 0 0 0 127 0" result="hardAlpha"/>
<feOffset dy="1"/>
<feGaussianBlur stdDeviation="2"/>
<feComposite in2="hardAlpha" operator="out"/>
<feColorMatrix type="matrix" values="0 0 0 0 0.0470588 0 0 0 0 0.0470588 0 0 0 0 0.0509804 0 0 0 0.1 0"/>
<feBlend mode="normal" in2="effect1_dropShadow_92_78854" result="effect2_dropShadow_92_78854"/>
<feBlend mode="normal" in="SourceGraphic" in2="effect2_dropShadow_92_78854" result="shape"/>
</filter>
<filter id="filter3_dd_92_78854" x="87.475" y="41.3398" width="35.025" height="38.3193" filterUnits="userSpaceOnUse" color-interpolation-filters="sRGB">
<feFlood flood-opacity="0" result="BackgroundImageFix"/>
<feColorMatrix in="SourceAlpha" type="matrix" values="0 0 0 0 0 0 0 0 0 0 0 0 0 0 0 0 0 0 127 0" result="hardAlpha"/>
<feOffset dy="1"/>
<feGaussianBlur stdDeviation="2"/>
<feComposite in2="hardAlpha" operator="out"/>
<feColorMatrix type="matrix" values="0 0 0 0 0.0470588 0 0 0 0 0.0470588 0 0 0 0 0.0509804 0 0 0 0.05 0"/>
<feBlend mode="normal" in2="BackgroundImageFix" result="effect1_dropShadow_92_78854"/>
<feColorMatrix in="SourceAlpha" type="matrix" values="0 0 0 0 0 0 0 0 0 0 0 0 0 0 0 0 0 0 127 0" result="hardAlpha"/>
<feOffset dy="1"/>
<feGaussianBlur stdDeviation="2"/>
<feComposite in2="hardAlpha" operator="out"/>
<feColorMatrix type="matrix" values="0 0 0 0 0.0470588 0 0 0 0 0.0470588 0 0 0 0 0.0509804 0 0 0 0.1 0"/>
<feBlend mode="normal" in2="effect1_dropShadow_92_78854" result="effect2_dropShadow_92_78854"/>
<feBlend mode="normal" in="SourceGraphic" in2="effect2_dropShadow_92_78854" result="shape"/>
</filter>
<filter id="filter4_dd_92_78854" x="117.4" y="49.9004" width="34" height="21.0996" filterUnits="userSpaceOnUse" color-interpolation-filters="sRGB">
<feFlood flood-opacity="0" result="BackgroundImageFix"/>
<feColorMatrix in="SourceAlpha" type="matrix" values="0 0 0 0 0 0 0 0 0 0 0 0 0 0 0 0 0 0 127 0" result="hardAlpha"/>
<feOffset dy="1"/>
<feGaussianBlur stdDeviation="2"/>
<feComposite in2="hardAlpha" operator="out"/>
<feColorMatrix type="matrix" values="0 0 0 0 0.0470588 0 0 0 0 0.0470588 0 0 0 0 0.0509804 0 0 0 0.05 0"/>
<feBlend mode="normal" in2="BackgroundImageFix" result="effect1_dropShadow_92_78854"/>
<feColorMatrix in="SourceAlpha" type="matrix" values="0 0 0 0 0 0 0 0 0 0 0 0 0 0 0 0 0 0 127 0" result="hardAlpha"/>
<feOffset dy="1"/>
<feGaussianBlur stdDeviation="2"/>
<feComposite in2="hardAlpha" operator="out"/>
<feColorMatrix type="matrix" values="0 0 0 0 0.0470588 0 0 0 0 0.0470588 0 0 0 0 0.0509804 0 0 0 0.1 0"/>
<feBlend mode="normal" in2="effect1_dropShadow_92_78854" result="effect2_dropShadow_92_78854"/>
<feBlend mode="normal" in="SourceGraphic" in2="effect2_dropShadow_92_78854" result="shape"/>
</filter>
</defs>
</svg>
