<?xml version="1.0" encoding="UTF-8"?>
<svg id="Layer_2" data-name="Layer 2" xmlns="http://www.w3.org/2000/svg" xmlns:xlink="http://www.w3.org/1999/xlink" viewBox="0 0 183.9 149">
  <defs>
    <style>
      .cls-1 {
        fill: #779ffe;
        stroke: #2e6be5;
      }

      .cls-1, .cls-2 {
        stroke-miterlimit: 10;
      }

      .cls-2 {
        fill: url(#linear-gradient);
        stroke: #eef0fe;
      }
    </style>
    <linearGradient id="linear-gradient" x1="39.3" y1="135.4" x2="145.9" y2="28.8" gradientUnits="userSpaceOnUse">
      <stop offset="0" stop-color="#c6d6ff" stop-opacity=".8"/>
      <stop offset=".5" stop-color="#aec7ff"/>
    </linearGradient>
  </defs>
  <g id="Layer_1-2" data-name="Layer 1">
    <g>
      <path class="cls-1" d="M48.5,126.9c-5.4,0-9.8-4.3-9.8-9.7V10.2c0-5.4,4.4-9.7,9.7-9.7h100c5.2,0,7.9,6.3,4.3,10.1l-19.9,21.1-29.4,31.2,51.6,31.2v22.9c-.1,5.3-4.4,9.7-9.8,9.7l-96.9.3Z"/>
      <path class="cls-2" d="M180.9,76.4l-49,51.4-15.7,16.5c-1.7,1.8-4,2.8-6.5,2.9l-50.8,1.2c-2.5,0-4.8-.9-6.6-2.6L3.3,99.4c-3.7-3.5-3.8-9.3-.3-12.9l12.4-13c3.5-3.7,9.3-3.8,12.9-.3l12.3,11.7,15,14.3c3.7,3.5,9.4,3.3,12.9-.3L133.2,31c1.2-1.3,2.7-2.1,4.3-2.5,2.9-.8,6.2,0,8.6,2.2l34.4,32.8c3.7,3.5,3.8,9.3.3,12.9Z"/>
    </g>
  </g>
</svg>