<?xml version="1.0" encoding="UTF-8"?><svg id="b" xmlns="http://www.w3.org/2000/svg" xmlns:xlink="http://www.w3.org/1999/xlink" viewBox="0 0 600 350"><defs><style>.g{fill:#e8f3e4;}.h{fill:url(#d);filter:url(#e);stroke:#659d58;stroke-miterlimit:10;stroke-width:2px;}.i{fill:#c2e1b5;}</style><linearGradient id="d" x1="1576.7" y1="28.22" x2="1806.44" y2="28.22" gradientTransform="translate(1948.46 555.52) rotate(-167.96)" gradientUnits="userSpaceOnUse"><stop offset=".12" stop-color="#659d58"/><stop offset=".85" stop-color="#9bcf8b"/></linearGradient><filter id="e" filterUnits="userSpaceOnUse"><feOffset dx="2" dy="2"/><feGaussianBlur result="f" stdDeviation="4"/><feFlood flood-color="#231f20" flood-opacity=".3"/><feComposite in2="f" operator="in"/><feComposite in="SourceGraphic"/></filter></defs><g id="c"><rect class="g" width="600" height="350"/><rect class="i" y="199.83" width="600" height="150.17"/><path class="h" d="M249.47,149.74c2.59,2.84,5.48,4.98,8.61,6.41,1.86.78,3.85,1.36,5.96,1.69,2,.31,3.93.45,5.8.43,1.42-.09,2.86-.28,4.33-.59,4.36-.91,8.28-2.39,11.69-4.46,3.29-2.26,6.24-5.24,8.85-8.85.88-1.22,1.65-2.46,2.3-3.72.78-1.7,1.45-3.52,1.97-5.47.56-2.06.85-4.12.89-6.13-.03-3.44-.8-6.94-2.34-10.47-.6-1.38-1.29-2.66-2.06-3.85-3.46-5.33-8.62-8.88-14.95-11.01-1.91-.64-3.9-1.22-5.61-2.22-1.04-.61-1.82-1.32-2.32-2.11-1.15-1.76-.92-3.89.73-6.09,1.01-1.35,2.32-2.59,3.73-3.53l.75-.5c1.05-.68,1.71-1.1,1.88-1.21.83-.55,1.63-1.06,2.42-1.58l.79-.5c2.8-1.83,5.62-3.65,8.43-5.46,6.06-3.94,12.13-7.87,18.2-11.8,2-1.29,3.99-2.59,5.99-3.88.92-.6,1.85-1.07,2.78-1.42.45-.18.87-.33,1.28-.45,4.76-1.25,9.37.64,12.44,5.38.93,1.44,1.83,2.83,2.74,4.22,5.22,8.05,10.44,16.11,15.67,24.16,1.48,2.28,2.96,4.55,4.44,6.82,1.06,1.62,2.23,3.19,3.49,4.66,1.05,1.22,2.19,2.2,3.38,2.95,4.3,2.6,8.99,2.38,12.62-.35,1.06-.87,2.03-1.97,2.85-3.28,1.19-1.87,1.92-4.06,2.67-6.17,2.83-8.01,8.86-13.81,16.15-15.51,1.81-.45,3.69-.66,5.61-.59,1.81.06,3.58.37,5.28.89,5.78,1.54,10.24,5.19,13.51,10.35.29.45.36.56.43.67,3.38,5.09,4.89,10.65,3.94,16.55-.22,1.77-.66,3.51-1.34,5.18-.72,1.78-1.68,3.41-2.83,4.88-4.53,5.96-12.29,9.09-20.75,8.41-2.23-.18-4.53-.4-6.72-.08-1.64.24-3.13.72-4.42,1.4-3.81,2.2-5.83,6.24-5.27,10.88.27,1.74.7,3.18,1.38,4.64.82,1.75,1.78,3.46,2.83,5.09,1.47,2.27,2.94,4.55,4.41,6.82,4.64,7.18,9.29,14.34,13.94,21.5l1.73,2.67c.9,1.39,1.8,2.78,2.63,4.06,3.17,4.9,3.02,9.87-.07,13.71-.28.33-.58.65-.91.96-.73.73-1.54,1.38-2.46,1.98-1.99,1.3-3.99,2.59-5.99,3.88-6.06,3.94-12.13,7.88-18.2,11.8-2.81,1.83-5.61,3.65-8.43,5.47l-.78.51c-.8.51-1.59,1.02-2.39,1.53-.21.14-.87.57-1.92,1.25l-.76.48c-1.43.9-3.09,1.59-4.74,1.96-2.68.6-4.72-.06-5.86-1.82-.51-.78-.84-1.78-.97-2.98-.22-1.98.07-4.03.26-6.03.64-6.65-.5-12.8-3.95-18.14-.78-1.19-1.67-2.34-2.68-3.45-2.59-2.84-5.48-4.98-8.61-6.41-1.86-.78-3.85-1.36-5.96-1.69-2-.31-3.93-.45-5.8-.43-1.42.09-2.86.28-4.33.59-4.36.91-8.28,2.39-11.69,4.46-3.29,2.26-6.24,5.24-8.85,8.85-.88,1.22-1.65,2.46-2.3,3.72-.78,1.7-1.45,3.52-1.97,5.47-.56,2.06-.85,4.12-.89,6.13.03,3.44.8,6.94,2.34,10.47.6,1.38,1.29,2.66,2.06,3.85,3.46,5.33,8.62,8.88,14.95,11.01,1.91.64,3.9,1.22,5.61,2.22,1.04.61,1.82,1.32,2.32,2.11,1.15,1.76.92,3.89-.73,6.09-1.01,1.35-2.32,2.59-3.73,3.53l-.75.5c-1.05.68-1.71,1.1-1.88,1.21-.83.55-1.63,1.06-2.42,1.58l-.79.5c-2.8,1.83-5.62,3.65-8.43,5.46-6.06,3.94-12.13,7.87-18.2,11.8-2,1.29-3.99,2.59-5.99,3.88-.92.6-1.85,1.07-2.78,1.42-.45.18-.87.33-1.28.45-4.76,1.25-9.37-.64-12.44-5.38-.93-1.44-1.83-2.83-2.74-4.22-5.22-8.05-10.44-16.11-15.67-24.16-1.48-2.28-2.96-4.55-4.44-6.82-1.06-1.62-2.23-3.19-3.49-4.66-1.05-1.22-2.19-2.2-3.38-2.95-4.3-2.6-8.99-2.38-12.62.35-1.06.87-2.03,1.97-2.85,3.28-1.19,1.87-1.92,4.06-2.67,6.17-2.83,8.01-8.86,13.81-16.15,15.51-1.81.45-3.69.65-5.61.59-1.81-.06-3.58-.37-5.28-.89-5.78-1.54-10.24-5.19-13.51-10.35-.29-.45-.36-.56-.43-.67-3.38-5.09-4.89-10.65-3.94-16.55.22-1.77.66-3.51,1.34-5.18.72-1.78,1.68-3.41,2.83-4.88,4.53-5.96,12.29-9.09,20.75-8.41,2.23.18,4.53.4,6.72.08,1.64-.24,3.13-.72,4.42-1.4,3.81-2.2,5.83-6.24,5.27-10.88-.27-1.74-.7-3.18-1.38-4.64-.82-1.75-1.78-3.46-2.83-5.09-1.47-2.27-2.94-4.55-4.41-6.82-5.22-8.07-10.45-16.12-15.67-24.17-.9-1.39-1.8-2.78-2.63-4.06-3.17-4.9-3.02-9.87.07-13.71.28-.33.58-.65.91-.96.73-.73,1.54-1.38,2.46-1.98,1.99-1.3,3.99-2.59,5.99-3.88,6.06-3.94,12.13-7.88,18.2-11.8,2.81-1.83,5.61-3.65,8.43-5.47l.78-.51c.8-.51,1.59-1.02,2.39-1.53.21-.14.87-.57,1.92-1.25l.76-.48c1.43-.9,3.09-1.59,4.74-1.96,2.68-.6,4.72.06,5.86,1.82.51.78.84,1.78.97,2.98.22,1.98-.07,4.03-.26,6.03-.64,6.65.5,12.8,3.95,18.14.77,1.19,1.66,2.35,2.68,3.45Z"/></g></svg>