<svg width="600" height="350" viewBox="0 0 600 350" fill="none" xmlns="http://www.w3.org/2000/svg">
<g clip-path="url(#clip0_4689_20830)">
<rect width="600" height="350" rx="8" fill="#EDE9FE"/>
<rect width="600" height="150" transform="translate(0 200)" fill="#C4B5FD"/>
<path d="M54.2656 358.5L235.766 200H373.766L545.766 358.5H54.2656Z" fill="white" fill-opacity="0.2"/>
<g filter="url(#filter0_dd_4689_20830)">
<path d="M227.496 175.498C217.074 175.498 207.558 170.06 202.347 160.997C197.135 152.16 197.135 141.058 202.347 131.995C207.558 123.159 217.074 117.494 227.496 117.494C237.692 117.494 247.208 123.159 252.42 131.995C257.631 141.058 257.631 152.16 252.42 160.997C247.208 170.06 237.692 175.498 227.496 175.498ZM217.074 186.373H237.692C260.123 186.373 278.249 204.499 278.249 226.93C278.249 230.555 275.077 233.501 271.452 233.501H183.314C179.689 233.501 176.744 230.555 176.744 226.93C176.744 204.499 194.643 186.373 217.074 186.373Z" fill="#075985"/>
</g>
<g filter="url(#filter1_dd_4689_20830)">
<rect x="329.51" y="131" width="101" height="88" rx="16" fill="white"/>
<path d="M361.226 136.162V149.052H425.674V142.607C425.674 139.183 422.653 136.162 419.229 136.162H361.226ZM354.781 136.162H341.892C338.266 136.162 335.447 139.183 335.447 142.607V149.052H354.781V136.162ZM335.447 155.497V207.055C335.447 210.68 338.266 213.5 341.892 213.5H419.229C422.653 213.5 425.674 210.68 425.674 207.055V155.497H358.004H335.447ZM329.002 142.607C329.002 135.558 334.641 129.717 341.892 129.717H419.229C426.278 129.717 432.119 135.558 432.119 142.607V207.055C432.119 214.305 426.278 219.945 419.229 219.945H341.892C334.641 219.945 329.002 214.305 329.002 207.055V142.607Z" fill="#075985"/>
</g>
</g>
<defs>
<filter id="filter0_dd_4689_20830" x="152.575" y="100.885" width="149.841" height="149.842" filterUnits="userSpaceOnUse" color-interpolation-filters="sRGB">
<feFlood flood-opacity="0" result="BackgroundImageFix"/>
<feColorMatrix in="SourceAlpha" type="matrix" values="0 0 0 0 0 0 0 0 0 0 0 0 0 0 0 0 0 0 127 0" result="hardAlpha"/>
<feOffset dy="0.805601"/>
<feGaussianBlur stdDeviation="0.805601"/>
<feColorMatrix type="matrix" values="0 0 0 0 0 0 0 0 0 0 0 0 0 0 0 0 0 0 0.06 0"/>
<feBlend mode="normal" in2="BackgroundImageFix" result="effect1_dropShadow_4689_20830"/>
<feColorMatrix in="SourceAlpha" type="matrix" values="0 0 0 0 0 0 0 0 0 0 0 0 0 0 0 0 0 0 127 0" result="hardAlpha"/>
<feOffset dy="0.805601"/>
<feGaussianBlur stdDeviation="1.2084"/>
<feColorMatrix type="matrix" values="0 0 0 0 0 0 0 0 0 0 0 0 0 0 0 0 0 0 0.1 0"/>
<feBlend mode="normal" in2="effect1_dropShadow_4689_20830" result="effect2_dropShadow_4689_20830"/>
<feBlend mode="normal" in="SourceGraphic" in2="effect2_dropShadow_4689_20830" result="shape"/>
</filter>
<filter id="filter1_dd_4689_20830" x="313.696" y="108.941" width="133.73" height="133.73" filterUnits="userSpaceOnUse" color-interpolation-filters="sRGB">
<feFlood flood-opacity="0" result="BackgroundImageFix"/>
<feColorMatrix in="SourceAlpha" type="matrix" values="0 0 0 0 0 0 0 0 0 0 0 0 0 0 0 0 0 0 127 0" result="hardAlpha"/>
<feOffset dy="0.805601"/>
<feGaussianBlur stdDeviation="0.805601"/>
<feColorMatrix type="matrix" values="0 0 0 0 0 0 0 0 0 0 0 0 0 0 0 0 0 0 0.06 0"/>
<feBlend mode="normal" in2="BackgroundImageFix" result="effect1_dropShadow_4689_20830"/>
<feColorMatrix in="SourceAlpha" type="matrix" values="0 0 0 0 0 0 0 0 0 0 0 0 0 0 0 0 0 0 127 0" result="hardAlpha"/>
<feOffset dy="0.805601"/>
<feGaussianBlur stdDeviation="1.2084"/>
<feColorMatrix type="matrix" values="0 0 0 0 0 0 0 0 0 0 0 0 0 0 0 0 0 0 0.1 0"/>
<feBlend mode="normal" in2="effect1_dropShadow_4689_20830" result="effect2_dropShadow_4689_20830"/>
<feBlend mode="normal" in="SourceGraphic" in2="effect2_dropShadow_4689_20830" result="shape"/>
</filter>
<clipPath id="clip0_4689_20830">
<rect width="600" height="350" rx="8" fill="white"/>
</clipPath>
</defs>
</svg>
