<svg width="600" height="350" viewBox="0 0 600 350" fill="none" xmlns="http://www.w3.org/2000/svg">
<rect width="600" height="350" rx="8" fill="#E0F2FE"/>
<rect width="600" height="350" rx="8" fill="url(#paint0_linear_4688_35750)" fill-opacity="0.5"/>
<path d="M154.492 207C142.992 207 132.492 201 126.742 191C120.992 181.125 120.992 169 126.742 159C132.492 149.125 142.992 143 154.492 143C165.867 143 176.367 149.125 182.117 159C187.867 169 187.867 181.125 182.117 191C176.367 201 165.867 207 154.492 207Z" fill="white"/>
<g filter="url(#filter0_dd_4688_35750)">
<path d="M166.492 175C166.492 177.875 166.242 180.5 165.992 183H142.867C142.617 180.5 142.492 177.875 142.492 175C142.492 172.25 142.617 169.625 142.867 167H165.992C166.242 169.625 166.492 172.25 166.492 175ZM169.992 167H185.367C186.117 169.625 186.492 172.25 186.492 175C186.492 177.875 186.117 180.5 185.367 183H169.992C170.242 180.5 170.492 177.75 170.492 175C170.492 172.25 170.242 169.625 169.992 167ZM184.117 163H169.492C168.242 155.125 165.742 148.375 162.617 144.125C172.367 146.75 180.367 153.75 184.117 163ZM165.492 163H143.367C144.117 158.5 145.367 154.5 146.742 151.25C148.117 148.25 149.492 146.125 150.992 144.75C152.367 143.5 153.492 143 154.492 143C155.367 143 156.492 143.5 157.867 144.75C159.367 146.125 160.742 148.25 162.117 151.25C163.492 154.5 164.742 158.5 165.492 163ZM139.367 163H124.742C128.492 153.75 136.492 146.75 146.242 144.125C143.117 148.375 140.617 155.125 139.367 163ZM123.492 167H138.867C138.617 169.625 138.492 172.25 138.492 175C138.492 177.75 138.617 180.5 138.867 183H123.492C122.742 180.5 122.492 177.875 122.492 175C122.492 172.25 122.742 169.625 123.492 167ZM146.742 198.875C145.367 195.625 144.117 191.625 143.367 187H165.492C164.742 191.625 163.492 195.625 162.117 198.875C160.742 201.875 159.367 204 157.867 205.375C156.492 206.625 155.367 207 154.492 207C153.492 207 152.367 206.625 150.992 205.375C149.492 204 148.117 201.875 146.742 198.875ZM139.367 187C140.617 195 143.117 201.75 146.242 206C136.492 203.375 128.492 196.375 124.742 187H139.367ZM184.117 187C180.367 196.375 172.367 203.375 162.617 206C165.867 201.75 168.242 195 169.492 187H184.117Z" fill="#075985"/>
</g>
<path d="M206.492 175.994L296.492 121.726" stroke="#0284C7" stroke-width="4" stroke-linecap="round" stroke-dasharray="10 10"/>
<path d="M206.492 175.726L297.507 228.274" stroke="#0284C7" stroke-width="4" stroke-linecap="round" stroke-dasharray="10 10"/>
<g filter="url(#filter1_dd_4688_35750)">
<rect x="322.508" y="113" width="150" height="125" rx="8" fill="white"/>
<path d="M406.508 159.25C408.633 159.875 409.883 162 409.258 164.125L393.258 220.125C392.633 222.25 390.508 223.5 388.383 222.875C386.258 222.25 385.008 220.125 385.633 218L401.633 162C402.258 159.875 404.383 158.625 406.508 159.25ZM416.633 174.25C418.133 172.625 420.758 172.625 422.258 174.25L436.258 188.25C437.883 189.75 437.883 192.375 436.258 193.875L422.258 207.875C420.758 209.5 418.133 209.5 416.633 207.875C415.008 206.375 415.008 203.75 416.633 202.25L427.758 191L416.633 179.875C415.008 178.375 415.008 175.75 416.633 174.25ZM378.258 174.25C379.883 175.75 379.883 178.375 378.258 179.875L367.133 191L378.258 202.25C379.883 203.75 379.883 206.375 378.258 207.875C376.758 209.5 374.133 209.5 372.633 207.875L358.633 193.875C357.008 192.375 357.008 189.75 358.633 188.25L372.633 174.25C374.133 172.625 376.758 172.625 378.258 174.25Z" fill="#075985"/>
<path d="M367.508 115V135H467.508V125C467.508 119.688 462.82 115 457.508 115H367.508ZM357.508 115H337.508C331.883 115 327.508 119.688 327.508 125V135H357.508V115ZM327.508 145V225C327.508 230.625 331.883 235 337.508 235H457.508C462.82 235 467.508 230.625 467.508 225V145H362.508H327.508ZM317.508 125C317.508 114.062 326.258 105 337.508 105H457.508C468.445 105 477.508 114.062 477.508 125V225C477.508 236.25 468.445 245 457.508 245H337.508C326.258 245 317.508 236.25 317.508 225V125Z" fill="#075985"/>
</g>
<defs>
<filter id="filter0_dd_4688_35750" x="119.492" y="141" width="70" height="70" filterUnits="userSpaceOnUse" color-interpolation-filters="sRGB">
<feFlood flood-opacity="0" result="BackgroundImageFix"/>
<feColorMatrix in="SourceAlpha" type="matrix" values="0 0 0 0 0 0 0 0 0 0 0 0 0 0 0 0 0 0 127 0" result="hardAlpha"/>
<feOffset dy="1"/>
<feGaussianBlur stdDeviation="1"/>
<feColorMatrix type="matrix" values="0 0 0 0 0 0 0 0 0 0 0 0 0 0 0 0 0 0 0.06 0"/>
<feBlend mode="normal" in2="BackgroundImageFix" result="effect1_dropShadow_4688_35750"/>
<feColorMatrix in="SourceAlpha" type="matrix" values="0 0 0 0 0 0 0 0 0 0 0 0 0 0 0 0 0 0 127 0" result="hardAlpha"/>
<feOffset dy="1"/>
<feGaussianBlur stdDeviation="1.5"/>
<feColorMatrix type="matrix" values="0 0 0 0 0 0 0 0 0 0 0 0 0 0 0 0 0 0 0.1 0"/>
<feBlend mode="normal" in2="effect1_dropShadow_4688_35750" result="effect2_dropShadow_4688_35750"/>
<feBlend mode="normal" in="SourceGraphic" in2="effect2_dropShadow_4688_35750" result="shape"/>
</filter>
<filter id="filter1_dd_4688_35750" x="314.508" y="93" width="166" height="166" filterUnits="userSpaceOnUse" color-interpolation-filters="sRGB">
<feFlood flood-opacity="0" result="BackgroundImageFix"/>
<feColorMatrix in="SourceAlpha" type="matrix" values="0 0 0 0 0 0 0 0 0 0 0 0 0 0 0 0 0 0 127 0" result="hardAlpha"/>
<feOffset dy="1"/>
<feGaussianBlur stdDeviation="1"/>
<feColorMatrix type="matrix" values="0 0 0 0 0 0 0 0 0 0 0 0 0 0 0 0 0 0 0.06 0"/>
<feBlend mode="normal" in2="BackgroundImageFix" result="effect1_dropShadow_4688_35750"/>
<feColorMatrix in="SourceAlpha" type="matrix" values="0 0 0 0 0 0 0 0 0 0 0 0 0 0 0 0 0 0 127 0" result="hardAlpha"/>
<feOffset dy="1"/>
<feGaussianBlur stdDeviation="1.5"/>
<feColorMatrix type="matrix" values="0 0 0 0 0 0 0 0 0 0 0 0 0 0 0 0 0 0 0.1 0"/>
<feBlend mode="normal" in2="effect1_dropShadow_4688_35750" result="effect2_dropShadow_4688_35750"/>
<feBlend mode="normal" in="SourceGraphic" in2="effect2_dropShadow_4688_35750" result="shape"/>
</filter>
<linearGradient id="paint0_linear_4688_35750" x1="543.5" y1="-39.5" x2="43.5001" y2="416.5" gradientUnits="userSpaceOnUse">
<stop stop-color="#7DD3FC"/>
<stop offset="1" stop-color="#BAE6FD"/>
</linearGradient>
</defs>
</svg>
