<?xml version="1.0" encoding="UTF-8"?><svg id="b" xmlns="http://www.w3.org/2000/svg" xmlns:xlink="http://www.w3.org/1999/xlink" viewBox="0 0 600 350"><defs><style>.f{fill:#231f20;}.g{fill:#cca5cd;}.h{filter:url(#d);}.i{fill:#f1e9f4;}.j{fill:#ddc6e0;}</style><filter id="d" filterUnits="userSpaceOnUse"><feOffset dx="4" dy="4"/><feGaussianBlur result="e" stdDeviation="4"/><feFlood flood-color="#231f20" flood-opacity=".15"/><feComposite in2="e" operator="in"/><feComposite in="SourceGraphic"/></filter></defs><g id="c"><rect class="i" width="600" height="350"/><rect class="j" y="199.83" width="600" height="150.17"/><path class="g" d="M284.12,273.13c-1.22,0-1.82-.13-2.06-.21-.08-.26-.23-.89-.24-2.22-.02-2.25-.01-4.49-.01-6.63v-5.37s-28.41-11.8-28.41-11.8l-2.37,2.5c-.55.58-1.12,1.19-1.72,1.83-1.45,1.55-2.95,3.15-4.52,4.71-.65.65-1.07.94-1.29,1.06-.21-.12-.61-.4-1.23-1.01-6.76-6.72-14.13-14.09-23.19-23.19-.63-.63-.92-1.05-1.04-1.26.12-.21.4-.62,1.03-1.25,1.55-1.57,3.15-3.06,4.69-4.51.66-.62,1.3-1.23,1.91-1.8l2.48-2.37-11.81-28.38h-8.92c-.99,0-2,0-3.02,0-1.33,0-1.97-.15-2.24-.23-.08-.27-.23-.93-.23-2.29v-7.84c0-7.96,0-15.93.01-23.89,0-1.15.13-1.72.21-1.96.24-.08.85-.22,2.06-.23h3.02s9.14,0,9.14,0l11.62-28.09-2.36-2.36c-1.82-1.82-4.03-4.03-6.22-6.24-.8-.81-1.16-1.32-1.32-1.59.16-.26.51-.75,1.28-1.52,7.54-7.55,15.08-15.09,22.63-22.61.8-.8,1.29-1.15,1.55-1.29.25.15.76.49,1.56,1.29l6.22,6.2.07.07c.73.67,1.94,1.46,3.6,1.46h3.68l.42-1.35c4.19-1.75,22.71-9.48,22.71-9.48v-4.7c0-1.57,0-3.4.01-5.24,0-.38,0-.75,0-1.13,0-.86-.02-1.67.07-2.31.06-.43.14-.68.19-.79.11-.04.39-.11.84-.13.8-.03,1.58-.04,2.36-.04.64,0,1.29,0,1.93.01.68,0,1.35.01,2.03.01h13.44c4.47,0,8.94,0,13.4,0,1.14,0,1.71.13,1.95.21.08.24.22.84.22,2.07.01,2.31.01,4.61.01,6.73v5.34s3.08,1.28,3.08,1.28c4.25,1.77,8.39,3.48,12.57,5.21l12.6,5.22,2.37-2.43c.54-.55,1.1-1.14,1.69-1.75,1.42-1.47,3.03-3.14,4.63-4.73.64-.63,1.07-.92,1.29-1.04.21.12.62.41,1.24,1.02,6.73,6.69,13.88,13.84,23.2,23.19.62.62.9,1.03,1.02,1.25-.12.22-.41.64-1.05,1.29-1.44,1.44-2.93,2.87-4.37,4.25-.73.7-1.45,1.39-2.13,2.05l-2.44,2.37,1.3,3.14c3.1,7.46,6.06,14.58,9.18,22.07l1.28,3.08h9.03s3.03,0,3.03,0c1.22,0,1.82.15,2.07.23.07.24.2.81.2,1.94.02,10.75.03,21.51.01,32.26,0,1.06-.13,1.58-.2,1.78-.2.07-.71.21-1.74.22-1.2.02-2.38.02-3.54.02-.97,0-4.65-.02-5.51-.02h-3.34l-1.28,3.08c-3.09,7.43-6.06,14.56-9.2,22.07l-1.32,3.15,2.46,2.37c.63.61,1.3,1.25,1.99,1.91,1.53,1.46,3.1,2.96,4.64,4.51.61.61.86,1.01.95,1.2-.09.18-.33.56-.91,1.13-7.36,7.4-15,15.05-23.38,23.37-.58.57-.96.84-1.16.95-.2-.12-.59-.38-1.18-.95-1.62-1.58-3.18-3.21-4.7-4.79-.6-.63-1.19-1.24-1.77-1.83l-2.37-2.44-28.27,11.73v11.87c0,1.38-.15,2.06-.23,2.35-.28.08-.92.21-2.2.21-10.56,0-21.14,0-31.71,0h0Z"/><g class="h"><path class="f" d="M222.36,261.79c-1.9-3.96-4.75-7.03-8.72-8.94-5.07-2.43-10.26-2.38-15.46-.34-.38-.47-.68-.81-.93-1.17-1.85-2.67-3.81-5.28-5.52-8.04-10.22-16.51-16.6-34.35-18.83-53.69-1.92-16.64-.76-33.01,3.88-49.09,1.5-5.18,3.5-10.23,5.3-15.33.61-1.73,1.16-3.44.35-5.25-.94-2.1-2.66-3.28-4.88-3.29-2.61-.01-4.32,1.53-5.33,3.91-4.56,10.77-7.79,21.92-9.5,33.5-.63,4.27-1.08,8.57-1.61,12.86v14.64c.15.97.37,1.94.42,2.92.48,8.59,1.88,17.06,4.07,25.36,4.51,17.1,11.87,32.89,22.39,47.15.69.93,1.31,1.91,1.9,2.76-5.42,9.88-1.68,19.41,4.37,24.13,6.55,5.13,16.17,5.24,22.61.07,6.79-5.45,9.08-14.68,5.49-22.16ZM205.52,277.01c-4.12-.06-7.54-3.57-7.48-7.68.07-4.23,3.64-7.57,7.98-7.45,3.92.1,7.22,3.63,7.17,7.66-.06,4.14-3.55,7.54-7.67,7.47Z"/><path class="f" d="M340.28,42.18c-6.56-1.62-13.16-3.16-19.8-4.4-4.42-.83-8.95-1.1-13.42-1.62h-13.57c-.7.14-1.4.31-2.1.4-6.09.78-12.23,1.27-18.25,2.39-15.49,2.89-30.03,8.44-43.54,16.57-4.87,2.93-9.56,6.15-14.37,9.25-10.56-4.32-18.81-2.58-24.58,5.23-4.78,6.47-4.5,15.82.67,22.17,5.32,6.54,14.36,8.74,21.77,5.32,3.9-1.81,6.93-4.55,8.9-8.39,2.67-5.2,2.63-10.55.58-15.83,7.4-5.91,20.12-13.53,33.29-18.3,20.55-7.46,41.61-9.73,63.2-6.43,6.23.95,12.34,2.69,18.51,4.01,3.37.73,6.14-.75,6.89-3.57.82-3.09-.75-5.96-4.18-6.8ZM205.72,88.24c-4.14.05-7.62-3.34-7.68-7.47-.05-4.11,3.37-7.62,7.49-7.68,4.11-.05,7.6,3.36,7.66,7.49.05,4.14-3.33,7.61-7.47,7.66Z"/><path class="f" d="M403.06,158.97c0-5.21-1.98-7.14-7.25-7.17-3.06-.01-6.12,0-8.74,0-3.12-7.49-6.08-14.61-9.18-22.07,2.03-1.97,4.34-4.13,6.57-6.37,3.41-3.44,3.42-6.16.02-9.58-7.72-7.75-15.45-15.49-23.21-23.2-3.42-3.41-6.13-3.39-9.58.01-2.3,2.28-4.53,4.63-6.39,6.54-7.55-3.13-14.62-6.05-22.04-9.13,0-2.64,0-5.7-.01-8.75-.02-5.27-1.96-7.25-7.16-7.26-8.95-.02-17.9-.01-26.85-.01-2.17,0-4.34-.07-6.51.02-3.42.13-5.36,1.88-5.8,5.25-.18,1.34-.1,2.71-.11,4.06-.02,2.42-.01,4.83-.01,6.65-7.57,3.16-14.62,6.11-21.85,9.12.13.09-.04.01-.17-.11-2.05-2.04-4.1-4.09-6.15-6.13-3.78-3.76-6.39-3.77-10.16,0-7.56,7.53-15.1,15.07-22.64,22.62-3.79,3.79-3.77,6.32.02,10.16,2.2,2.22,4.42,4.44,6.24,6.26-3.11,7.51-6.03,14.57-9.07,21.92-2.72,0-5.79-.01-8.85,0-5.26.03-7.23,1.98-7.24,7.18-.02,10.58-.01,21.16-.01,31.74,0,5.59,1.89,7.5,7.45,7.52,3.05.01,6.11,0,8.62,0,3.13,7.52,6.07,14.58,9.21,22.13-1.99,1.9-4.39,4.09-6.68,6.4-3.4,3.41-3.4,6.15.01,9.57,7.72,7.75,15.45,15.49,23.21,23.21,3.4,3.38,6.14,3.37,9.57-.06,2.3-2.29,4.48-4.69,6.34-6.65,7.68,3.19,14.81,6.15,22.15,9.2,0,2.73-.01,5.71.01,8.68.02,5.45,1.94,7.4,7.29,7.41,10.58,0,21.16,0,31.73-.01,5.57-.01,7.4-1.88,7.42-7.56v-8.53c7.44-3.09,14.57-6.04,22.05-9.15,2,2.06,4.23,4.44,6.55,6.71,3.33,3.27,6.06,3.27,9.37-.02,7.82-7.77,15.62-15.56,23.4-23.39,3.22-3.24,3.2-6.11-.05-9.38-2.29-2.3-4.67-4.52-6.7-6.48,3.14-7.52,6.11-14.65,9.2-22.08,2.81,0,5.96.04,9.11-.01,4.86-.06,6.88-2.1,6.88-6.99.02-10.76,0-21.52-.01-32.27ZM392,187.39c-2.75,0-5.53-.02-8.3,0-4.41.04-6.06,1.21-7.07,5.51-1.99,8.42-5.31,16.27-9.79,23.66-2.3,3.78-1.98,5.82,1.1,8.91,1.97,1.97,3.99,3.88,5.83,5.68-5.93,5.93-11.6,11.61-17.5,17.51-1.73-1.73-3.68-3.69-5.65-5.64-3.3-3.26-5.11-3.57-9.11-1.15-7.4,4.48-15.27,7.74-23.68,9.76-4.28,1.03-5.4,2.65-5.42,7.13-.02,2.7-.01,5.4-.01,8.31h-24.73c0-2.9.02-5.76-.01-8.63-.04-4.11-1.22-5.8-5.2-6.75-8.6-2.05-16.63-5.39-24.18-9.98-3.67-2.23-5.54-1.89-8.67,1.18-1.87,1.83-3.71,3.69-5.58,5.53-.09.09-.22.14-.24.14v-.02c-5.77-5.77-11.49-11.49-17.41-17.41,1.79-1.76,3.8-3.69,5.76-5.67,3.09-3.11,3.44-4.99,1.22-8.65-4.57-7.55-7.93-15.57-9.99-24.17-.97-4.09-2.64-5.21-6.98-5.25-2.63-.03-5.25-.04-7.87-.08-.15,0-.31-.14-.6-.29v-24.37c2.71,0,5.38,0,8.06,0,4.96-.01,6.33-1.03,7.55-5.91,2-8.03,5.09-15.59,9.36-22.69,2.83-4.72,2.59-6.2-1.4-10.16-1.73-1.71-3.52-3.36-5.21-4.97,6-6.02,11.67-11.71,17.63-17.68,1.81,1.87,3.71,3.91,5.68,5.87,3.05,3.05,5.06,3.42,8.65,1.24,7.55-4.59,15.57-7.94,24.17-9.99,4.1-.98,5.22-2.65,5.25-6.99.02-2.7.01-5.4.01-8.32h24.73c0,2.69,0,5.37.01,8.05.01,4.67,1.11,6.28,5.51,7.33,8.42,2.02,16.28,5.29,23.67,9.79,3.8,2.31,5.78,1.98,8.9-1.1,1.81-1.78,3.59-3.57,5.39-5.35.06-.07.13-.12.17-.14-.01.02-.02.03-.04.04,5.77,5.76,11.49,11.48,17.4,17.39-1.6,1.62-3.64,3.64-5.65,5.69-2.85,2.9-3.19,4.95-1.06,8.46,4.59,7.55,7.94,15.57,10,24.17.98,4.11,2.66,5.24,6.97,5.27,2.7,0,5.41,0,8.33,0v24.74Z"/><path class="f" d="M437.77,158.16c-1.78-14.36-5.7-28.09-11.75-41.24-4.05-8.81-9-17.09-14.79-24.87-.84-1.13-1.02-2-.36-3.38,4.53-9.47.69-20.13-8.79-24.69-8.74-4.21-19.47-.48-24.06,8.38-4.48,8.63-1.22,19.56,7.17,24.23,5.33,2.97,10.81,3.2,16.61.95.49.62.84,1.03,1.15,1.47,1.79,2.6,3.69,5.14,5.35,7.83,10.21,16.52,16.59,34.37,18.81,53.73,1.99,17.3.66,34.29-4.43,50.92-1.85,6.02-4.39,11.83-6.61,17.74-1.24,3.33-.13,6.43,2.68,7.55,2.96,1.18,5.9.03,7.22-3.34,2.82-7.22,5.83-14.42,7.96-21.85,5.01-17.49,6.09-35.36,3.84-53.43ZM394.46,88.21c-4.13.08-7.6-3.31-7.64-7.46-.04-4.13,3.35-7.6,7.47-7.66,4.11-.05,7.61,3.37,7.67,7.49.06,4.13-3.3,7.55-7.5,7.63Z"/><path class="f" d="M408.36,257.54c-5.22-6.26-14.44-8.31-21.65-4.83-3.87,1.87-6.89,4.63-8.8,8.49-2.55,5.14-2.51,10.41-.45,15.7-6.11,4.66-12.43,8.66-19.13,12.05-13.9,7.04-28.56,11.48-44.08,13.25-12.31,1.4-24.55,1.06-36.68-1.19-6.2-1.15-12.25-3.05-18.36-4.61-.53-.13-1.03-.32-1.56-.47-3.63-.98-6.62.36-7.48,3.35-.89,3.11.76,5.85,4.32,7,8.6,2.76,17.31,5.01,26.3,6.24,15.36,2.09,30.61,1.71,45.81-1.26,15.65-3.06,30.37-8.57,44.02-16.8,4.79-2.88,9.4-6.06,14.12-9.12,10.47,4.31,18.85,2.55,24.6-5.21,4.93-6.65,4.52-15.99-.98-22.59ZM394.48,277.01c-4.13.06-7.56-3.3-7.64-7.49-.08-4.14,3.31-7.61,7.46-7.65,4.13-.04,7.61,3.35,7.66,7.47.06,4.11-3.36,7.61-7.48,7.67Z"/><path class="f" d="M243.64,293.53c-.05,3.03-2.34,5.29-5.36,5.27-2.97-.02-5.57-2.62-5.52-5.52.05-2.83,2.61-5.34,5.43-5.31,3.03.03,5.49,2.55,5.44,5.57Z"/><path class="f" d="M357.04,49c3.06.03,5.48,2.5,5.41,5.53-.07,2.97-2.45,5.3-5.39,5.26-2.91-.03-5.55-2.73-5.47-5.58.08-2.91,2.52-5.24,5.46-5.21Z"/><path class="f" d="M300.05,221.81c-23.54-.09-43.21-17.48-46.24-40.97-3.02-23.4,11.99-45.3,35.01-51.04,7.98-1.99,15.94-1.76,23.85.37,3.26.88,4.98,3.51,4.33,6.46-.68,3.09-3.37,4.71-6.86,4.08-1.86-.34-3.7-.84-5.58-1.08-22.23-2.79-41.31,14.85-40.3,37.23.65,14.36,10.23,27.18,23.86,31.9,14.01,4.86,29.2.91,38.7-10.16,8.1-9.43,10.66-20.25,7.84-32.36-.25-1.05-.51-2.11-.62-3.18-.3-2.87,1.43-5.33,4.03-5.88,2.69-.57,5.31.81,6.26,3.53.71,2.04,1.25,4.16,1.62,6.29,4.49,26.35-13.81,50.84-39.7,54.18-2.06.27-4.13.42-6.2.62Z"/><path class="f" d="M329.27,140.51c3.06.09,5.79,3.04,5.66,6.1-.12,2.89-2.69,5.24-5.57,5.1-2.97-.14-5.59-2.95-5.52-5.94.06-2.87,2.61-5.34,5.43-5.26Z"/></g></g></svg>